<?xml version="1.0" standalone="no"?>
<!DOCTYPE svg PUBLIC "-//W3C//DTD SVG 1.0//EN" "http://www.w3.org/TR/2001/REC-SVG-20010904/DTD/svg10.dtd">
<svg xmlns="http://www.w3.org/2000/svg" xmlns:xlink="http://www.w3.org/1999/xlink" id="body_1" width="246" height="246">

<g transform="matrix(0.12011719 0 0 0.12011719 0 0)">
	<g>
        <path d="M1770.5 1156.2C 1751.2 1209.6 1697.9 1262.7 1630.2 1311.7999C 1446.5 1445.1 1157 1549.1 1152.7999 1550.2C 1152.7999 1550.2 832.0999 1646 581.49994 1509.6C 330.79993 1373.2 234.99994 794.5 323.49994 658.1C 325.19995 655.5 326.99994 652.89996 328.99994 650.39996C 342.19995 633.6 361.19995 619.89996 384.49994 608.89996C 536.8999 537.1 874.49994 583.89996 999.89996 665.49994C 1147.2999 761.2999 1326.1 750.2999 1691 987.99994C 1772.7 1041.4 1791.2 1098.9 1770.5 1156.2z" stroke="none" fill="#EEEDEE" fill-rule="nonzero" />
        <path d="M1542.4 1784.6L455.6 1784.6C 426.4 1784.6 402.7 1760.9 402.7 1731.7L402.7 1731.7L402.7 1694.8999C 402.7 1665.7 426.40002 1641.9999 455.6 1641.9999L455.6 1641.9999L1542.5 1641.9999C 1571.7 1641.9999 1595.4 1665.6998 1595.4 1694.8999L1595.4 1694.8999L1595.4 1731.7C 1595.3 1760.9 1571.6 1784.6 1542.4 1784.6z" stroke="none" fill="#EEEDEE" fill-rule="nonzero" />
        <path d="M259.5 1710.3C 259.5 1656.1761 464.5536 1612.3 717.5 1612.3C 970.4464 1612.3 1175.5 1656.1761 1175.5 1710.3C 1175.5 1764.424 970.4464 1808.3 717.5 1808.3C 464.5536 1808.3 259.5 1764.424 259.5 1710.3" stroke="none" fill="#EEEDEE" fill-rule="nonzero" />
        <path d="M1303.6 298.2C 1199.6 246.20001 1081.7 228.20001 967.3 248.80002C 890.3 262.7 816 293.80002 813.1 361.90002C 806.89996 505.2 973.19995 567.9 1091.8 583.4C 1210.4 598.80005 1349.4 631.30005 1402.9 665.80005C 1449.5 696 1607.9 450.3 1303.6 298.2z" stroke="none" fill="#EEEDEE" fill-rule="nonzero" />
		<g>
            <path d="M1642.3 1071.4L572.4 1071.4C 528.2 1071.4 492.30002 1035.5 492.30002 991.30005L492.30002 991.30005L492.30002 319.8C 492.30002 275.59998 528.2 239.69998 572.4 239.69998L572.4 239.69998L1642.3 239.69998C 1686.5 239.69998 1722.4 275.59998 1722.4 319.8L1722.4 319.8L1722.4 991.2C 1722.4 1035.4 1686.5 1071.4 1642.3 1071.4zM572.4 241.3C 529.10004 241.3 493.90002 276.5 493.90002 319.8L493.90002 319.8L493.90002 991.2C 493.90002 1034.5 529.10004 1069.7 572.4 1069.7L572.4 1069.7L1642.3 1069.7C 1685.6001 1069.7 1720.8 1034.5 1720.8 991.19995L1720.8 991.19995L1720.8 319.8C 1720.8 276.5 1685.6001 241.29999 1642.3 241.29999L1642.3 241.29999L572.4 241.29999z" stroke="none" fill="#13448C" fill-rule="nonzero" />
            <path d="M493.1 393.7L1721.6 393.7L1721.6 395.30002L493.1 395.30002z" stroke="none" fill="#13448C" fill-rule="nonzero" />
            <path d="M624.1 340.9C 613 340.9 603.89996 331.9 603.89996 320.69998C 603.89996 309.59998 612.89996 300.49997 624.1 300.49997C 635.3 300.49997 644.3 309.49997 644.3 320.69998C 644.3 331.9 635.2 340.9 624.1 340.9zM624.1 302.2C 613.89996 302.2 605.5 310.5 605.5 320.80002C 605.5 331.10004 613.8 339.40002 624.1 339.40002C 634.39996 339.40002 642.69995 331.10004 642.69995 320.80002C 642.69995 310.5 634.3 302.2 624.1 302.2z" stroke="none" fill="#13448C" fill-rule="nonzero" />
            <path d="M689.6 340.9C 678.5 340.9 669.39996 331.9 669.39996 320.69998C 669.39996 309.59998 678.39996 300.49997 689.6 300.49997C 700.69995 300.49997 709.8 309.49997 709.8 320.69998C 709.7 331.9 700.7 340.9 689.6 340.9zM689.6 302.2C 679.39996 302.2 671 310.5 671 320.80002C 671 331.10004 679.3 339.40002 689.6 339.40002C 699.8 339.40002 708.19995 331.10004 708.19995 320.80002C 708.19995 310.5 699.8 302.2 689.6 302.2z" stroke="none" fill="#13448C" fill-rule="nonzero" />
            <path d="M755.1 340.9C 744 340.9 734.89996 331.9 734.89996 320.69998C 734.89996 309.59998 743.89996 300.49997 755.1 300.49997C 766.19995 300.49997 775.3 309.49997 775.3 320.69998C 775.2 331.9 766.2 340.9 755.1 340.9zM755.1 302.2C 744.89996 302.2 736.5 310.5 736.5 320.80002C 736.5 331.10004 744.8 339.40002 755.1 339.40002C 765.3 339.40002 773.69995 331.10004 773.69995 320.80002C 773.69995 310.5 765.3 302.2 755.1 302.2z" stroke="none" fill="#13448C" fill-rule="nonzero" />
		</g>
		<g>
			<g>
				<g>
					<g>
                        <path d="M1711.5 651.2C 1711.5 731.7783 1683.0112 800.5563 1626.0337 857.53375C 1569.0563 914.5113 1500.2783 943 1419.7 943C 1339.1216 943 1270.3438 914.5113 1213.3662 857.53375C 1156.3887 800.5563 1127.8999 731.7783 1127.8999 651.2C 1127.8999 570.6217 1156.3887 501.84378 1213.3662 444.86627C 1270.3438 387.8888 1339.1216 359.40002 1419.7 359.40002C 1500.2783 359.40002 1569.0563 387.8888 1626.0337 444.86627C 1683.0112 501.84378 1711.5 570.6217 1711.5 651.2C 1711.5 654.5956 1711.4407 657.9902 1711.3221 661.38367" stroke="none" fill="#DBE0E4" fill-rule="nonzero" />
                        <path d="M1444.5 632.7C 1444.5 632.7 1537.5 647.7 1548.9 679.2C 1560.3 710.7 1574.6 848 1558.9 850.80005C 1543.2001 853.6001 1491.9 803.4 1491.9 803.4L1491.9 803.4L1508.9 978.80005L1294.4 985.30005L1307.3 757.9L1234.2001 821.60004L1259.3 674.5C 1259.3 674.5 1368.8 623.4 1394.5 627.7C 1420.1 632 1444.5 632.7 1444.5 632.7z" stroke="none" fill="#F95858" fill-rule="nonzero" />
						<g>
                            <path d="M1275.7 582.7L1273.3 620.5L1320.7 628.5L1336.8 594.8L1318.3 581.9L1275.7 582.7" stroke="none" fill="#FFB19E" fill-rule="nonzero" />
							<g>
                                <path d="M1335.3 503.4L1370.5 535.8L1305.3 613.2L1267.8 580.1L1335.3 503.4" stroke="none" fill="#13448C" fill-rule="nonzero" />
                                <path d="M1332.6 512.5L1362 539.5L1307.6 604.1L1276.4 576.5L1332.6 512.5" stroke="none" fill="#141720" fill-rule="nonzero" />
                                <path d="M1301.2 537.9C 1301.2 537.9 1301 524.7 1309.1 523.30005C 1317.2 521.9001 1328.1 518.50006 1328.7999 520.4C 1329.4999 522.3 1324.9999 529 1320.2 531.4C 1315.3999 533.80005 1306.7999 538.60004 1306.7999 538.60004C 1306.7999 538.60004 1317.1 538.80005 1315.8999 542.4C 1314.7 546 1295.9999 550.60004 1295.9999 550.60004C 1295.9999 550.60004 1311.0999 560.00006 1307.7999 563.30005C 1304.3999 566.7001 1287.2 564.30005 1287.2 564.30005C 1287.2 564.30005 1300.3999 574.60004 1296.7999 578.2001C 1293.2 581.80005 1282.8999 581.30005 1277.1 575.30005C 1271.3 569.30005 1270.4 561.10004 1274.7 559.9C 1279 558.7 1275.7 554.10004 1279.5 551C 1283.3 547.9 1289.1 548.1 1289.1 547.2C 1289 546.3 1285.6 536.5 1301.2 537.9z" stroke="none" fill="#FFB19E" fill-rule="nonzero" />
							</g>
                            <path d="M1336.8 594.8L1341.5 558.3C 1341.5 558.3 1331.9 556.89996 1330.2 565.1C 1328.6 573.3 1326.1 589.89996 1326.1 589.89996L1326.1 589.89996L1329.1 601.3L1336.8 594.8z" stroke="none" fill="#FFB19E" fill-rule="nonzero" />
                            <path d="M1275.3 616.9C 1275.3 616.9 1176.5 763.60004 1200.1001 815.30005C 1223.7001 866.9 1260.5001 789.4 1270.8 764.30005C 1281.1001 739.2001 1320.8 626.80005 1320.8 626.80005L1320.8 626.80005L1282.7001 611.80005L1275.3 616.9z" stroke="none" fill="#FFB19E" fill-rule="nonzero" />
						</g>
                        <path d="M1357.9 540.4C 1357.9 540.4 1354.3 596.9 1333.6 610.5C 1333.6 610.5 1390.1 642 1438.7 632.7C 1487.2999 623.4 1532.3999 590.5 1532.3999 590.5C 1532.3999 590.5 1490.8999 518.2 1489.8999 478.5C 1489.7 471.6 1487.9999 464.8 1484.5999 458.8C 1476.1998 444 1457.7998 421.19998 1424.2998 422.69998C 1374.9998 424.8 1375.8998 436.69998 1375.8998 436.69998C 1375.8998 436.69998 1358.6998 446.69998 1352.2998 466.69998C 1345.8998 486.69998 1357.9 540.4 1357.9 540.4z" stroke="none" fill="#521A19" fill-rule="nonzero" />
                        <path d="M1389.4 582.6L1382.2001 633.39996L1373.6001 644.1C 1373.6001 644.1 1389.3 670.6 1414.4001 664.8C 1439.4001 659.1 1446.6001 644.8 1446.6001 644.8C 1446.6001 644.8 1433.0001 612.6 1440.9001 589C 1448.7 565.5 1389.4 582.6 1389.4 582.6z" stroke="none" fill="#FFB19E" fill-rule="nonzero" />
                        <path d="M1501.4 780.7L1400 759.2L1371.4 732.9L1329.6 737.7C 1329.6 737.7 1321.2 746.10004 1336.7999 752C 1352.2999 758 1366.6 779.4 1366.6 779.4L1366.6 779.4L1480.2999 830.7C 1480.2999 830.7 1561.4999 860.2 1572.2999 851.8L1572.2999 851.8L1563.7 770.89996L1501.3999 761.99994L1501.3999 780.7L1501.4 780.7z" stroke="none" fill="#FFB19E" fill-rule="nonzero" />
                        <path d="M1396 581.4L1441.3 585.80005C 1441.3 585.80005 1434.5 608.9 1419.8 608.9C 1405.1001 608.9 1390 599.4 1394.3 581.9" stroke="none" fill="#EA907F" fill-rule="nonzero" />
                        <path d="M1479.7 529C 1431.1 524.4 1379.3999 470.3 1379.3999 470.3C 1370.0999 485.5 1359.7999 516 1353.9999 520.8C 1358.2999 555.2 1384.8999 597.1 1417.3999 597.1C 1447.7 597.1 1473.2999 560.69995 1480.2 527.89996C 1479.9 528.7 1479.7 529 1479.7 529z" stroke="none" fill="#FFB19E" fill-rule="nonzero" />
                        <path d="M1380.1 516.8C 1380.1 516.8 1392.4 513.39996 1402.1 515.7C 1403.1 515.9 1403.7 514.60004 1402.9 514C 1399.4 511.5 1394.2001 508.6 1388.7001 508.7C 1378.9 508.8 1374.7 514.2 1380.1 516.8z" stroke="none" fill="#521A19" fill-rule="nonzero" />
                        <path d="M1388.9 529C 1388.9 524.9683 1390.9595 521.7 1393.5 521.7C 1396.0405 521.7 1398.1 524.9683 1398.1 529C 1398.1 533.0317 1396.0405 536.3 1393.5 536.3C 1390.9595 536.3 1388.9 533.0317 1388.9 529" stroke="none" fill="#521A19" fill-rule="nonzero" />
                        <path d="M1450.2 519.2C 1450.2 519.2 1437.8999 515.8 1428.2 518.10004C 1427.2 518.30005 1426.6 517.00006 1427.3999 516.4C 1430.8999 513.9 1436.0999 511.00003 1441.5999 511.10004C 1451.4 511.2 1455.6 516.6 1450.2 519.2z" stroke="none" fill="#521A19" fill-rule="nonzero" />
                        <path d="M1432.1 531.4C 1432.1 527.36835 1434.1594 524.10004 1436.7 524.10004C 1439.2405 524.10004 1441.2999 527.36835 1441.2999 531.4C 1441.2999 535.4317 1439.2405 538.7 1436.7 538.7C 1434.1594 538.7 1432.1 535.4317 1432.1 531.4" stroke="none" fill="#521A19" fill-rule="nonzero" />
                        <path d="M1409.1 537.3C 1409.1 537.3 1390.7999 552.39996 1416.2999 559.2C 1416.3 559.1 1402.7 552 1409.1 537.3z" stroke="none" fill="#521A19" fill-rule="nonzero" />
                        <path d="M1429.5 543.7C 1429.5 542.485 1433.1265 541.5 1437.6 541.5C 1442.0735 541.5 1445.7 542.485 1445.7 543.7C 1445.7 544.91504 1442.0735 545.9 1437.6 545.9C 1433.1265 545.9 1429.5 544.91504 1429.5 543.7" stroke="none" fill="#EA907F" fill-rule="nonzero" />
                        <path d="M1385.1 540.1C 1385.1 538.88495 1388.7264 537.89996 1393.2 537.89996C 1397.6735 537.89996 1401.2999 538.88495 1401.2999 540.1C 1401.2999 541.315 1397.6735 542.3 1393.2 542.3C 1388.7264 542.3 1385.1 541.315 1385.1 540.1" stroke="none" fill="#EA907F" fill-rule="nonzero" />
                        <path d="M1399.6 568.5C 1399.6 568.5 1431 560.4 1433.1 562.1C 1435.2 563.7999 1427.1 578.5 1417.2 578.69995C 1407.4 578.9 1394.1 570.1 1399.6 568.5z" stroke="none" fill="#FFFFFF" fill-rule="nonzero" />
					</g>
                    <path d="M1419.7 961C 1377.8999 961 1337.2999 952.8 1299.1 936.7C 1262.2 921.10004 1229.1 898.8 1200.6 870.3C 1172.1 841.8 1149.7999 808.7 1134.2 771.8C 1118 733.6 1109.8999 693 1109.8999 651.2C 1109.8999 609.4 1118.0999 568.8 1134.2 530.60004C 1149.7999 493.70004 1172.1 460.60004 1200.6 432.10004C 1229.1 403.60004 1262.2 381.30005 1299.1 365.70004C 1337.2999 349.50003 1377.9 341.40005 1419.7 341.40005C 1461.4999 341.40005 1502.1 349.60007 1540.2999 365.70004C 1577.2 381.30005 1610.2999 403.60004 1638.7999 432.10004C 1667.2999 460.60004 1689.6 493.70004 1705.2 530.60004C 1721.3999 568.80005 1729.5 609.4 1729.5 651.2C 1729.5 693 1721.3 733.60004 1705.2 771.8C 1689.6 808.7 1667.2999 841.8 1638.7999 870.3C 1610.2999 898.8 1577.2 921.1 1540.2999 936.7C 1502 952.8 1461.5 961 1419.7 961zM1419.7 345.3C 1251 345.3 1113.7999 482.5 1113.7999 651.19995C 1113.7999 819.89996 1250.9999 957.1 1419.7 957.1C 1588.4 957.1 1725.6 819.89996 1725.6 651.19995C 1725.6 482.5 1588.3 345.3 1419.7 345.3z" stroke="none" fill="#DBE0E4" fill-rule="nonzero" />
				</g>
				<g>
                    <path d="M1253.1 424.5C 1253.1001 444.1061 1246.1682 460.84097 1232.3046 474.7046C 1218.4409 488.5682 1201.706 495.5 1182.1 495.5C 1162.4939 495.5 1145.759 488.5682 1131.8954 474.7046C 1118.0317 460.84097 1111.1 444.1061 1111.1 424.5C 1111.1 404.89392 1118.0317 388.15906 1131.8954 374.2954C 1145.759 360.43182 1162.4939 353.5 1182.1 353.5C 1201.706 353.5 1218.4409 360.43182 1232.3046 374.2954C 1246.1682 388.15906 1253.1001 404.89392 1253.1 424.5C 1253.1001 425.32623 1253.0857 426.1522 1253.0568 426.97787" stroke="none" fill="#EB564A" fill-rule="nonzero" />
                    <path d="M1168.6 446.6L1141 417.6L1142.7 416L1168.9 443.4L1221.9 402.4L1223.3 404.3L1168.6 446.6" stroke="none" fill="#FFFFFF" fill-rule="nonzero" />
				</g>
			</g>
			<g>
                <path d="M489.8 1632.4C 489.8 1643.0315 486.0412 1652.1061 478.5236 1659.6237C 471.00604 1667.1412 461.93152 1670.9 451.3 1670.9C 440.66852 1670.9 431.59396 1667.1412 424.0764 1659.6237C 416.5588 1652.1061 412.80002 1643.0315 412.8 1632.4C 412.80002 1621.7686 416.5588 1612.6941 424.0764 1605.1764C 431.59396 1597.6589 440.66852 1593.9001 451.3 1593.9C 461.93152 1593.9001 471.00604 1597.6589 478.5236 1605.1764C 486.0412 1612.6941 489.8 1621.7686 489.8 1632.4C 489.8 1632.8481 489.79218 1633.2959 489.77655 1633.7437" stroke="none" fill="#F95858" fill-rule="nonzero" />
                <path d="M725.5 1632.4C 725.5 1643.0315 721.7412 1652.1061 714.22363 1659.6237C 706.70605 1667.1412 697.6315 1670.9 687 1670.9C 676.3685 1670.9 667.294 1667.1412 659.77637 1659.6237C 652.2588 1652.1061 648.5 1643.0315 648.5 1632.4C 648.5 1621.7686 652.2588 1612.6941 659.77637 1605.1764C 667.294 1597.6589 676.3685 1593.9001 687 1593.9C 697.6315 1593.9001 706.70605 1597.6589 714.22363 1605.1764C 721.7412 1612.6941 725.5 1621.7686 725.5 1632.4C 725.5 1632.8481 725.4922 1633.2959 725.47656 1633.7437" stroke="none" fill="#F95858" fill-rule="nonzero" />
                <path transform="matrix(-1 -4.488333E-11 4.488333E-11 -1 1158.9767 3009.552)"  d="M555 1380L604 1380L604 1629.6L555 1629.6z" stroke="none" fill="#F95858" fill-rule="nonzero" />
                <path transform="matrix(-1 -4.489843E-11 4.489843E-11 -1 1158.9767 3234.1226)"  d="M459.1 1604.5L699.8 1604.5L699.8 1629.6L459.1 1629.6z" stroke="none" fill="#F95858" fill-rule="nonzero" />
                <path d="M439.8 964L484.3 932.2L623.5 933.5L747.6 1430C 747.6 1430 655.3 1510.3 498.09998 1406.6C 369.2 1321.6 418.1 1056.4 439.8 964z" stroke="none" fill="#E54848" fill-rule="nonzero" />
                <path d="M660.3 933.6L484.8 931.89996C 484.8 931.89996 376.09998 1281.2999 533.3 1384.8999C 690.4 1488.4999 784.4 1429.9999 784.4 1429.9999L784.4 1429.9999L660.3 933.6z" stroke="none" fill="#F95858" fill-rule="nonzero" />
                <path d="M714.3 1215L846.4 1355.1C 864 1373.7 861.5 1403.5 841.10004 1418.9L841.10004 1418.9L601.80005 1600.6L571.7001 1557.1L718.8 1380L581.69995 1226.2L714.3 1215z" stroke="none" fill="#13448C" fill-rule="nonzero" />
                <path d="M655.3 1236.2L774.8 1375.6C 787.7 1390.6 791.39996 1411.5 784.39996 1430.1L784.39996 1430.1L698.8 1657.5L662 1657.5L685.4 1430.1L596.9 1369C 564 1346.3 543.10004 1310.1 539.9 1270.3L539.9 1270.3L535 1209.5L655.3 1236.2z" stroke="none" fill="#1D54B5" fill-rule="nonzero" />
                <path d="M429 1236.2L1520.6 1236.2C 1534.1 1236.2 1545.1 1225.2 1545.1 1211.7C 1545.1 1198.2 1534.1 1187.2 1520.6 1187.2L1520.6 1187.2L429 1187.2C 415.5 1187.2 404.5 1198.2 404.5 1211.7C 404.5 1225.2 415.5 1236.2 429 1236.2z" stroke="none" fill="#C0DBFC" fill-rule="nonzero" />
				<g>
					<g>
                        <path d="M974.1 1187.4L1049.7 1213.3C 1050.3999 1213.5 1051 1213.6001 1051.7 1213.6001L1051.7 1213.6001L1131.2999 1213.6001C 1136.2 1213.6001 1139.2999 1208.2001 1136.6 1204.0001L1136.6 1204.0001L1120.4 1178.1001C 1119.3 1176.3 1117.2001 1175.2001 1115.1 1175.2001L1115.1 1175.2001L976.1 1175.2001C 969 1175.2 967.4 1185.1 974.1 1187.4z" stroke="none" fill="#1A6CF3" fill-rule="nonzero" />
                        <path d="M974.1 1187.4L1049.7 1213.3C 1050.3999 1213.5 1051 1213.6001 1051.7 1213.6001L1051.7 1213.6001L1059.7 1213.6001C 1059.1 1210.9001 1058.6 1207.4001 1055.7999 1206.5001C 1052.7999 1205.5001 1045.7 1199.1001 1045.7 1199.1001L1045.7 1199.1001L976.39996 1175.1001L975.99994 1175.1001C 969 1175.2 967.4 1185.1 974.1 1187.4z" stroke="none" fill="#1D54B5" fill-rule="nonzero" />
					</g>
                    <path d="M1216.5 1093.3L872.8 1093.3L920 836.5L1233.3 839.3C 1247.9 839.39996 1258.9 852.7 1256.4 867.1L1256.4 867.1L1216.5 1093.3z" stroke="none" fill="#4286E8" fill-rule="nonzero" />
                    <path d="M872.8 1093.3L1240.4 1093.3L1243.2001 1072.7001L1258.9 983.80005L1283.1 846.4C 1285.6 832 1274.6 818.80005 1260 818.60004L1260 818.60004L946.7 815.80005C 946.7 815.80005 926.60004 817.80005 920.10004 836.4C 920.10004 836.4 942.7 833.9 939.2 854L939.2 854L939.7 854L938.4 860.9L899.5 1072.6C 899.4 1072.7 893.9 1089.8 872.8 1093.3z" stroke="none" fill="#3070CE" fill-rule="nonzero" />
                    <path d="M872.8 1093.3L1240.4 1093.3L1243.2001 1072.7001L1258.9 983.80005C 1208.4 976.00006 1028.4 943.10004 938.5 861.00006L938.5 861.00006L899.6 1072.7001C 899.4 1072.7 893.9 1089.8 872.8 1093.3z" stroke="none" fill="#1D54B5" fill-rule="nonzero" />
                    <path d="M1118 1010.9L1004.9 1010.9L1038.6 1201.1C 1040 1209.1 1047 1214.9 1055.1 1214.9L1055.1 1214.9L1141 1214.9C 1151.6 1214.9 1159.6 1205.1 1157.3 1194.7001L1157.3 1194.7001L1118 1010.9z" stroke="none" fill="#1D54B5" fill-rule="nonzero" />
                    <path d="M1135.1 1010.9L1022 1010.9L1055.7 1201.1C 1057.1 1209.1 1064.1 1214.9 1072.2 1214.9L1072.2 1214.9L1158.1 1214.9C 1168.7 1214.9 1176.7 1205.1 1174.4 1194.7001L1174.4 1194.7001L1135.1 1010.9z" stroke="none" fill="#4286E8" fill-rule="nonzero" />
				</g>
				<g>
					<g>
                        <path d="M857.4 981.3C 857.4 981.3 861.9 975 860.4 966.1C 858.9 957.19995 860.80005 937.89996 863.7 937.5C 866.6 937.10004 868.2 945.7 868.2 950.5C 868.2 950.5 883.4 924.5 883.8 915.2C 884.2 905.9 890.1 901.10004 892.7 908.10004C 895.30005 915.10004 904.2 948.2 894.9 971.30005C 885.60004 994.30005 866.30005 1008.4 866.30005 1008.4L866.30005 1008.4L851.80005 999.5L857.4 981.3z" stroke="none" fill="#FFB19E" fill-rule="nonzero" />
                        <path d="M716.3 950.3L687 1005.8L651.9 983.7L671.2 918.6L716.3 950.3" stroke="none" fill="#FFB19E" fill-rule="nonzero" />
                        <path d="M755.6 932.6C 755.6 932.6 799.1 895.8 786.8 862.39996C 786.8 862.39996 792.39996 811.1 747.8 806.69995C 703.2 802.19995 649.7 812.7999 649.7 874.39996C 649.7 936 712.10004 937.1 712.10004 937.1L712.10004 937.1L755.6 932.6z" stroke="none" fill="#521A19" fill-rule="nonzero" />
                        <path d="M772.6 888.6C 772.6 888.6 750 984.69995 702.39996 973.89996C 654.7999 963.1 651.39996 917.89996 651.39996 917.89996C 651.39996 917.89996 625.49994 901.19995 649.69995 874.39996C 673.89996 847.69995 670.6 883.6 670.6 883.6L670.6 883.6L689 855.19995L772.6 888.6z" stroke="none" fill="#FFB19E" fill-rule="nonzero" />
                        <path d="M516.5 1190.5L748 1190.5L745.5 1161.2L710.4 1158.7C 710.4 1158.7 706.2 1116.1 714.60004 1099.3999L714.60004 1099.3999L779.50006 1185.0999L875.9001 1020.4999L852.50006 970.29987C 852.50006 970.29987 780.60004 1092.2998 779.50006 1097.6998L779.50006 1097.6998L736.30005 1017.39984C 736.30005 1017.39984 717.10004 984.79987 697.00006 988.9998L697.00006 988.9998L687.00006 1005.6998L654.4001 970.59985C 654.4001 970.59985 584.2001 965.59985 572.50006 982.29987C 560.8 999.1 501.5 1117.8 516.5 1190.5z" stroke="none" fill="#4286E8" fill-rule="nonzero" />
                        <path d="M640.8 1149.3L688.7 1157.1001C 688.7 1157.1001 707.60004 1089.7001 697.10004 989.1001L697.10004 989.1001L687.10004 1005.8001L654.50006 970.70013C 654.4 970.7 615.2 1091.3 640.8 1149.3z" stroke="none" fill="#FFFFFF" fill-rule="nonzero" />
                        <path d="M640.8 1149.3L575 1138.1L606.2 1037.8L592.9 1121.4L640.8 1149.3" stroke="none" fill="#13448C" fill-rule="nonzero" />
					</g>
                    <path d="M748.1 1190.5L745.6 1163.5C 745.6 1163.5 793.5 1168.5 803.6 1191.6L803.6 1191.6L748.1 1190.5z" stroke="none" fill="#FFB19E" fill-rule="nonzero" />
				</g>
                <path d="M705 900.4C 705 899.9 705.3 888.80005 699.4 886C 695.80005 884.3 690.80005 886.2 684.5 891.7L684.5 891.7L685.5 892.8C 691.3 887.7 695.8 885.89996 698.8 887.39996C 703.8 889.8 703.6 900.3 703.6 900.39996L703.6 900.39996L705 900.4z" stroke="none" fill="#521A19" fill-rule="nonzero" />
                <path d="M746.1 916.7C 746.1 916.2 746.39996 905.10004 740.5 902.3C 736.9 900.6 731.9 902.5 725.6 908L725.6 908L726.6 909.1C 732.39996 904 736.89996 902.19995 739.89996 903.69995C 744.89996 906.1 744.69995 916.6 744.69995 916.69995L744.69995 916.69995L746.1 916.7z" stroke="none" fill="#521A19" fill-rule="nonzero" />
                <path d="M715 930.5C 709.4 930.5 703 926.1 702.6 925.8L702.6 925.8L703.69995 924.2C 703.7999 924.3 715.19995 932.10004 719.39996 926.5C 720.39996 925.1 720.69995 923.8 720.39996 922.6C 719.69995 919.89996 716.1 917.89996 714.8 917.3L714.8 917.3L714.1 917L715.69995 907.5L717.69995 907.8L716.2999 915.8C 717.8999 916.6 721.49994 918.8 722.2999 922.1C 722.7999 924 722.3999 925.89996 720.99994 927.8C 719.5 929.8 717.3 930.5 715 930.5z" stroke="none" fill="#521A19" fill-rule="nonzero" />
                <path d="M691.7 944.4C 691.7 942.0252 695.9533 940.10004 701.2 940.10004C 706.4467 940.10004 710.7 942.0252 710.7 944.4C 710.7 946.77484 706.4467 948.7 701.2 948.7C 695.9533 948.7 691.7 946.77484 691.7 944.4" stroke="none" fill="#521A19" fill-rule="nonzero" />
				<g>
                    <path d="M625.7 882.3C 625.7 891 630 898.6 636.60004 903.2C 640.80005 906.2 645.9 907.9 651.4 907.9C 665.60004 907.9 677 896.4 677 882.30005C 677 877.9 675.9 873.80005 674 870.2001C 669.7 862.2001 661.2 856.7001 651.4 856.7001C 637.2 856.7 625.7 868.2 625.7 882.3z" stroke="none" fill="#3070CE" fill-rule="nonzero" />
                    <path d="M667.9 882.3C 667.9 886.8563 666.2891 890.7454 663.06726 893.9672C 659.84546 897.1891 655.9564 898.80005 651.4 898.8C 646.8437 898.80005 642.9546 897.1891 639.7328 893.9672C 636.511 890.7454 634.9 886.8563 634.9 882.3C 634.9 877.74365 636.511 873.8546 639.7328 870.63275C 642.9546 867.41095 646.8437 865.80005 651.4 865.8C 655.9564 865.80005 659.84546 867.41095 663.06726 870.63275C 666.2891 873.8546 667.9 877.74365 667.9 882.3C 667.9 882.49207 667.89667 882.68396 667.88995 882.87585" stroke="none" fill="#1D54B5" fill-rule="nonzero" />
                    <path d="M648.6 858.4C 648.6 858.4 666.6 791.30005 738.5 805.80005C 738.5 805.80005 671.4 812.10004 659.2 860.00006L659.2 860.00006L648.6 858.4z" stroke="none" fill="#3070CE" fill-rule="nonzero" />
                    <path d="M636.6 903.3C 640.8 906.3 645.89996 908 651.39996 908C 665.6 908 676.99994 896.5 676.99994 882.4C 676.99994 878 675.89996 873.9 673.99994 870.30005C 674.39996 872.7001 678.7999 906.10004 643.89996 904.7001L643.89996 904.7001L636.6 903.3z" stroke="none" fill="#1D54B5" fill-rule="nonzero" />
                    <path d="M693.8 947.1L694.7 942.8C 663.8 936.5 654.9 900.89996 654.8 900.6L654.8 900.6L650.6 901.6C 650.9 903.2 660.2 940.2 693.8 947.1z" stroke="none" fill="#3070CE" fill-rule="nonzero" />
                    <path d="M686.6 950L692.5 952.2C 695.9 953.5 699.6 951.7 700.9 948.4C 702.2 945 700.4 941.30005 697.10004 940L697.10004 940L691.2 937.8C 687.8 936.5 684.10004 938.3 682.8 941.6C 681.5 945 683.2 948.7 686.6 950z" stroke="none" fill="#1D54B5" fill-rule="nonzero" />
				</g>
                <path d="M670 1023.9L684.5 1010.8L694 1025.8L688.2 1024.4L679.8 1155.4L658.3 1152.3L679 1023L670 1023.9" stroke="none" fill="#13448C" fill-rule="nonzero" />
                <path d="M710.8 886.4C 710.8 886.4 702.1 877.30005 695.89996 878C 689.8 878.7 686.39996 880 686.39996 880C 686.39996 880 695.1 871.8 700.3 872.6C 705.5 873.3 714.8 882.1 714.8 882.1C 714.8 882.1 715.1 886.2 710.8 886.4z" stroke="none" fill="#521A19" fill-rule="nonzero" />
                <path d="M734.3 893.7C 734.3 893.7 746.7 895.9 749.5 901.5C 752.3 907 753 910.5 753 910.5C 753 910.5 755 898.7 751.5 894.8C 748 890.89996 735.6 888 735.6 888C 735.6 888 732.1 890 734.3 893.7z" stroke="none" fill="#521A19" fill-rule="nonzero" />
                <path transform="matrix(0.4375 -0.8992 0.8992 0.4375 -422.6524 1128.0919)"  d="M687.4 901.9C 687.4 896.6533 688.74316 892.4 690.4 892.4C 692.0569 892.4 693.4 896.6533 693.4 901.9C 693.4 907.1467 692.0569 911.4 690.4 911.4C 688.74316 911.4 687.4 907.1467 687.4 901.9" stroke="none" fill="#EA907F" fill-rule="nonzero" />
                <path transform="matrix(0.4375 -0.8992 0.8992 0.4375 -414.2854 1177.4102)"  d="M731 919.9C 731 914.6533 732.34314 910.4 734 910.4C 735.65686 910.4 737 914.6533 737 919.9C 737 925.1467 735.65686 929.4 734 929.4C 732.34314 929.4 731 925.1467 731 919.9" stroke="none" fill="#EA907F" fill-rule="nonzero" />
                <path d="M698.7 1657.5C 698.7 1657.5 768.9 1677.6 767.2 1692.6C 765.5 1707.6 655.2 1694.2999 655.2 1694.2999L655.2 1694.2999L661.9 1657.4999L698.7 1657.4999L698.7 1657.5z" stroke="none" fill="#0D2D54" fill-rule="nonzero" />
                <path d="M601.8 1600.6C 601.8 1600.6 626.89996 1650.7999 621.89996 1665.7999C 616.89996 1680.7999 536.6 1585.6 536.6 1585.6L536.6 1585.6L571.69995 1557.2L601.8 1600.6z" stroke="none" fill="#0D2D54" fill-rule="nonzero" />
                <path d="M1390.5 1764.5L1243.1 1223.6L1273.3 1215.4L1423 1764.5L1390.5 1764.5" stroke="none" fill="#C0DBFC" fill-rule="nonzero" />
                <path d="M426.3 1761.1L573.7 1220.2L543.5 1212L393.9 1761.1L426.3 1761.1" stroke="none" fill="#C0DBFC" fill-rule="nonzero" />
			</g>
			<g>
                <path d="M642.3 410.3L413.5 410.3L413.5 549.7L570.2 549.7L594.4 606.9L613.5 549.7L642.3 549.7L642.3 410.3" stroke="none" fill="#3070CE" fill-rule="nonzero" />
                <path d="M437.1 435.2L618.7 435.2L618.7 443.90002L437.1 443.90002z" stroke="none" fill="#C0DBFC" fill-rule="nonzero" />
                <path d="M437.1 461.3L618.7 461.3L618.7 470L437.1 470z" stroke="none" fill="#C0DBFC" fill-rule="nonzero" />
                <path d="M437.1 487.5L618.7 487.5L618.7 496.2L437.1 496.2z" stroke="none" fill="#C0DBFC" fill-rule="nonzero" />
                <path d="M437.1 513.6L618.7 513.6L618.7 522.3L437.1 522.3z" stroke="none" fill="#C0DBFC" fill-rule="nonzero" />
			</g>
			<g>
                <path d="M675.5 533.9L895.3 533.9L895.3 667.8L744.8 667.8L721.5 722.7L703.1 667.8L675.5 667.8L675.5 533.9" stroke="none" fill="#EB564A" fill-rule="nonzero" />
                <path transform="matrix(-1 -4.489976E-11 4.489976E-11 -1 1570.7838 1124.0219)"  d="M698.2 557.8L872.6 557.8L872.6 566.2L698.2 566.2z" stroke="none" fill="#FFFFFF" fill-rule="nonzero" />
                <path transform="matrix(-1 -4.489976E-11 4.489976E-11 -1 1570.7838 1174.2048)"  d="M698.2 582.9L872.6 582.9L872.6 591.30005L698.2 591.30005z" stroke="none" fill="#FFFFFF" fill-rule="nonzero" />
                <path transform="matrix(-1 -4.489976E-11 4.489976E-11 -1 1570.7838 1224.3878)"  d="M698.2 608L872.6 608L872.6 616.4L698.2 616.4z" stroke="none" fill="#FFFFFF" fill-rule="nonzero" />
                <path transform="matrix(-1 -4.489976E-11 4.489976E-11 -1 1570.7838 1274.5708)"  d="M698.2 633.1L872.6 633.1L872.6 641.5L698.2 641.5z" stroke="none" fill="#FFFFFF" fill-rule="nonzero" />
			</g>
			<g>
				<g>
                    <path d="M1579.6 961.4C 1579.6 961.4 1579.2999 961.7 1578.9 962.2C 1576.2001 965 1566.9 974.9 1563.9 978.4C 1560.4 982.5 1551.6 984.80005 1531.8 996.5C 1511.9 1008.2 1516.6001 1008.2 1511.9 1015.2C 1507.2001 1022.2 1501.4 1026.3 1481.5 1033.3C 1461.6 1040.3 1448.8 1040.9 1448.8 1040.9L1448.8 1040.9L1437.7001 1073.6L1435.9 1074.2L1434.2001 1074.7999L1437.9 1058.9999L1441.4 1043.7999C 1441.4 1043.7999 1441.4 1043.7999 1441.4 1043.7999L1441.4 1043.7999L1443 1036.9999C 1443 1036.9999 1444.7 1021.79987 1454.7 1016.59985C 1464.6 1011.39984 1464.6 1011.89984 1473.3999 1007.29987C 1482.2 1002.59985 1483.2999 999.6999 1494.9999 990.39984C 1506.6998 981.09985 1505.4999 983.9998 1525.3999 978.6998C 1545.1 973.1 1579.6 961.4 1579.6 961.4z" stroke="none" fill="#4386E9" fill-rule="nonzero" />
                    <path d="M1419 1078.8L1418.6 1079.2001L1417.6 1080.2001L1411.2999 1059.0001C 1411.2999 1059.0001 1404.3999 1058.4001 1399.7999 1057.8002C 1395.1 1057.2002 1390.4999 1056.6002 1386.9999 1054.9001C 1383.4999 1053.1001 1379.3999 1051.4001 1377.0999 1050.8002C 1374.7998 1050.2002 1367.1998 1049.6002 1357.7998 1045.0001C 1348.4998 1040.3002 1354.2998 1041.5001 1349.5999 1037.4001C 1344.8999 1033.3002 1346.0999 1033.3002 1344.2998 1032.1001C 1342.5999 1030.9001 1338.4998 1029.8 1336.6998 1028.6001C 1334.8998 1027.4001 1326.1998 1025.1001 1320.2998 1020.4001C 1314.4998 1015.7001 1314.9998 1006.4001 1310.3998 999.4001C 1305.6998 992.4001 1302.7998 992.4001 1298.6998 986.00006C 1294.5999 979.60004 1291.0999 969.60004 1291.0999 969.60004C 1291.0999 969.60004 1306.2998 980.7 1309.7998 983.60004C 1313.2998 986.50006 1323.7998 990.00006 1326.6998 992.9C 1329.5999 995.80005 1355.2998 1007.5 1360.5999 1009.80005C 1365.8999 1012.10004 1407.2998 1039 1410.1998 1041.3C 1413.2 1043.7 1419 1078.8 1419 1078.8z" stroke="none" fill="#4386E9" fill-rule="nonzero" />
                    <path d="M1428.3 1078.2L1425.4 1081.1L1417.8 1032C 1417.8 1032 1411.4 1021.5 1409.6001 1019.7C 1407.8 1018 1406.7001 1016.8 1402.0001 1012.10004C 1397.3002 1007.4 1397.9001 1003.9 1395.6001 998.7C 1393.3 993.4 1390.9001 989.9 1388.0001 963.10004C 1385.1001 936.2 1383.9001 949.7 1379.2001 935.7C 1374.5001 921.7 1380.9 917 1379.8 903.60004C 1378.7001 890.60004 1385.8 877.50006 1386.2001 876.80005C 1386.2001 876.80005 1386.2001 876.80005 1386.2001 876.80005C 1386.2001 876.80005 1386.2001 885.60004 1389.1001 895.50006C 1392.0001 905.4001 1392.6001 901.9001 1394.4001 913.00006C 1396.1001 924.10004 1395.0001 921.2001 1395.6001 931.10004C 1396.2001 941.00006 1399.1001 937.50006 1403.2001 946.9C 1407.3 956.2 1405.5001 955.10004 1405.5001 966.80005C 1405.5001 978.50006 1410.2001 983.2001 1418.9001 1000.7001C 1427.7002 1018.2001 1425.3002 1018.2001 1425.3002 1025.2001C 1425.4 1032 1428.3 1078.2 1428.3 1078.2z" stroke="none" fill="#4386E9" fill-rule="nonzero" />
                    <path d="M1496.1 872C 1490.7999 880.8 1489.7 886.6 1482.1 902.9C 1474.5 919.30005 1482.1 919.30005 1481.5 932.7C 1480.9 946.10004 1481.5 948.5 1475.7 959C 1469.8999 969.5 1467.5 975.9 1460.5 990C 1453.5 1004 1445.3 1008.7 1445.3 1021.5C 1445.3 1034.3 1440.1001 1033.2 1436 1041.9C 1432.3 1049.8 1431.5 1077.1 1431.4 1082.5C 1431.4 1083.1 1431.4 1083.4 1431.4 1083.4C 1425 1070 1432 1042.5 1432 1042.5C 1432 1042.5 1436.1 1024.4 1435.5 1021.5C 1434.9 1018.6 1434.9 1011.6 1434.3 1007.5C 1433.7001 1003.4 1436.6001 987.6 1436.6001 978.3C 1436.6001 969 1436.6001 969 1438.9001 957.89996C 1441.2002 946.8 1445.3002 947.99994 1449.4001 936.3C 1453.5001 924.6 1454.1001 924.6 1459.9001 913.5C 1465.1001 903.6 1494.3002 871.1 1496.5001 870.8C 1496.7 870.7 1496.6 871.1 1496.1 872z" stroke="none" fill="#4386E9" fill-rule="nonzero" />
                    <path d="M1578.8 962.1C 1576.1001 964.89996 1566.8 974.8 1563.8 978.3C 1560.3 982.39996 1551.5 984.7 1531.7001 996.39996C 1511.8 1008.1 1516.5001 1008.1 1511.8 1015.1C 1507.1001 1022.1 1501.3 1026.2 1481.4 1033.2C 1461.5 1040.2 1448.7001 1040.7999 1448.7001 1040.7999L1448.7001 1040.7999L1437.6001 1073.4999L1435.8 1074.0999C 1435.8 1074.0999 1436.3 1067.1998 1437.7001 1058.7998C 1438.5001 1053.7998 1439.7001 1048.3998 1441.2001 1043.5999C 1441.2001 1043.5999 1441.2001 1043.5999 1441.2001 1043.5999C 1442.9 1038.1998 1445.2001 1033.5999 1448.0001 1031.4999C 1457.6001 1024.4999 1468.1001 1021.59985 1481.3002 1013.9999C 1494.4001 1006.3999 1495.6002 1000.59985 1506.4001 996.1999C 1517.2002 991.79987 1523.0001 993.8999 1529.8002 990.0999C 1536.5001 986.2999 1568.0001 969.6999 1571.6002 967.2999C 1573.5 966 1576.4 963.9 1578.8 962.1z" stroke="none" fill="#1D54B5" fill-rule="nonzero" />
                    <path d="M1496.1 872C 1490.7999 880.8 1489.7 886.6 1482.1 902.9C 1474.5 919.30005 1482.1 919.30005 1481.5 932.7C 1480.9 946.10004 1481.5 948.5 1475.7 959C 1469.8999 969.5 1467.5 975.9 1460.5 990C 1453.5 1004 1445.3 1008.7 1445.3 1021.5C 1445.3 1034.3 1440.1001 1033.2 1436 1041.9C 1432.3 1049.8 1431.5 1077.1 1431.4 1082.5C 1431.3 1082.5 1431.2001 1082.5 1431.2001 1082.5C 1431.2001 1082.5 1428.6001 1055.3 1433.2001 1044.2C 1437.8 1033 1441.1001 1025.1 1441.5001 1018.7999C 1441.9001 1012.49994 1437.6001 1002.99994 1444.8002 987.0999C 1452.0001 971.0999 1453.1002 967.3999 1454.0001 965.5999C 1454.9001 963.8999 1457.1001 948.2999 1461.7001 934.2999C 1466.3 920.2999 1466.7001 915.49994 1467.4 914.5999C 1468.1 913.6999 1481.2001 893.5999 1482.5 891.3999C 1483.7 889.3999 1494.5 873.8999 1496.6 870.8999C 1496.7 870.7 1496.6 871.1 1496.1 872z" stroke="none" fill="#1D54B5" fill-rule="nonzero" />
                    <path d="M1428.3 1078.2L1427.3 1079.2C 1426.1001 1070.2 1423.7001 1052.6 1423.7001 1051.6C 1423.7001 1050.2999 1419.3 1021.39996 1418.4 1019.6C 1417.5 1017.89996 1417.1 1008.69995 1413.2001 1001.19995C 1409.3 993.69995 1406.6001 989.7999 1403.6001 984.1C 1400.5001 978.39996 1399.7001 978 1396.2001 970.5C 1392.7001 963.1 1396.6001 964.4 1396.6001 961.3C 1396.6001 958.2 1396.2001 951.7 1393.5001 945.5C 1390.9001 939.4 1391.3002 940.7 1389.6001 932.8C 1387.9001 924.89996 1388.7001 922.7 1384.3 908.3C 1380 894.2 1386 877.5 1386.3 876.7C 1386.3 876.7 1386.3 876.7 1386.3 876.7C 1386.3 876.7 1386.3 885.5 1389.2001 895.4C 1392.1001 905.30005 1392.7001 901.80005 1394.5001 912.9C 1396.2001 924 1395.1001 921.10004 1395.7001 931C 1396.3 940.9 1399.2001 937.4 1403.3 946.8C 1407.4 956.1 1405.6001 955 1405.6001 966.7C 1405.6001 978.4 1410.3 983.10004 1419.0001 1000.60004C 1427.8002 1018.10004 1425.4001 1018.10004 1425.4001 1025.1001C 1425.4 1032 1428.3 1078.2 1428.3 1078.2z" stroke="none" fill="#1D54B5" fill-rule="nonzero" />
                    <path d="M1419 1078.8L1418.6 1079.2001L1412.5 1055.2001C 1412.5 1055.2001 1407.5 1050.5001 1403.4 1047.6001C 1399.3 1044.7001 1398.4 1045.6001 1393.5 1043.2001C 1388.5 1040.9 1388.3 1042.0001 1378.9 1039.7001C 1369.6 1037.4 1361.7001 1027.1001 1357.9 1024.5001C 1354.1 1021.90015 1351.8 1020.40015 1349.4 1018.70013C 1347.1 1017.0001 1342.1 1015.8001 1334.5 1014.0001C 1326.9 1012.20013 1326.3 1007.90015 1323.7 1004.70013C 1321.1 1001.5001 1319.8999 996.20013 1310 989.8001C 1300.1001 983.4001 1291 969.6001 1291 969.6001C 1291 969.6001 1306.2 980.7001 1309.7 983.6001C 1313.2 986.5001 1323.7 990.0001 1326.6 992.9001C 1329.5 995.8001 1355.2 1007.50006 1360.5 1009.8001C 1365.8 1012.1001 1407.2 1039.0001 1410.1 1041.3C 1413.2 1043.7 1419 1078.8 1419 1078.8z" stroke="none" fill="#1D54B5" fill-rule="nonzero" />
				</g>
				<g>
                    <path d="M1504.2 1053.5L1504.1 1054.2L1481 1188L1382.9 1188L1382.3 1184.9L1357.5 1053.5L1504.2 1053.5" stroke="none" fill="#F95858" fill-rule="nonzero" />
                    <path d="M1504.1 1053.6L1481 1188L1382.9 1188L1382.3 1184.9L1489.1 1053.5L1504.1 1053.6" stroke="none" fill="#E54848" fill-rule="nonzero" />
				</g>
			</g>
		</g>
		<g>
			<g>
                <path d="M1788.5 611.6L1640.2 611.6L1640.2 701.9L1741.8 701.9L1757.5 739L1769.8 701.9L1788.5 701.9L1788.5 611.6" stroke="none" fill="#3070CE" fill-rule="nonzero" />
			</g>
			<g>
                <path d="M1685 654.6C 1685 657.0577 1684.1311 659.1554 1682.3932 660.89325C 1680.6554 662.6311 1678.5576 663.5 1676.1 663.5C 1673.6423 663.5 1671.5447 662.6311 1669.8068 660.89325C 1668.069 659.1554 1667.2 657.0577 1667.2 654.6C 1667.2 652.14233 1668.069 650.04456 1669.8068 648.3067C 1671.5447 646.56885 1673.6423 645.69995 1676.1 645.69995C 1678.5576 645.69995 1680.6554 646.56885 1682.3932 648.3067C 1684.1311 650.04456 1685 652.14233 1685 654.6C 1685 654.70355 1684.9983 654.80707 1684.9945 654.9106" stroke="none" fill="#1D54B5" fill-rule="nonzero" />
                <path d="M1723.2001 654.6C 1723.2001 657.0577 1722.3312 659.1554 1720.5933 660.89325C 1718.8556 662.6311 1716.7578 663.5 1714.3 663.5C 1711.8424 663.5 1709.7446 662.6311 1708.0068 660.89325C 1706.269 659.1554 1705.4 657.0577 1705.4 654.6C 1705.4 652.14233 1706.269 650.04456 1708.0068 648.3067C 1709.7446 646.56885 1711.8424 645.69995 1714.3 645.69995C 1716.7578 645.69995 1718.8556 646.56885 1720.5933 648.3067C 1722.3312 650.04456 1723.2001 652.14233 1723.2001 654.6C 1723.2001 654.70355 1723.1982 654.80707 1723.1946 654.9106" stroke="none" fill="#1D54B5" fill-rule="nonzero" />
                <path d="M1761.5 654.6C 1761.5 657.0577 1760.6311 659.1554 1758.8932 660.89325C 1757.1554 662.6311 1755.0576 663.5 1752.6 663.5C 1750.1423 663.5 1748.0447 662.6311 1746.3068 660.89325C 1744.569 659.1554 1743.7 657.0577 1743.7 654.6C 1743.7 652.14233 1744.569 650.04456 1746.3068 648.3067C 1748.0447 646.56885 1750.1423 645.69995 1752.6 645.69995C 1755.0576 645.69995 1757.1554 646.56885 1758.8932 648.3067C 1760.6311 650.04456 1761.5 652.14233 1761.5 654.6C 1761.5 654.70355 1761.4983 654.80707 1761.4945 654.9106" stroke="none" fill="#1D54B5" fill-rule="nonzero" />
			</g>
		</g>
	</g>
</g>
</svg>