<svg id="svg" version="1.1" xmlns="http://www.w3.org/2000/svg" xmlns:xlink="http://www.w3.org/1999/xlink" width="200" height="200" viewBox="0, 0, 400,400"><g id="svgg"><path id="path0" d="M20.540 38.587 C 20.079 38.910,18.914 39.297,17.951 39.447 C 16.988 39.598,15.771 40.054,15.246 40.460 C 14.721 40.867,14.082 41.200,13.824 41.200 C 13.102 41.200,8.056 46.313,7.376 47.735 C 7.043 48.431,6.463 49.540,6.086 50.200 C 5.442 51.327,5.400 60.403,5.400 200.066 L 5.400 348.733 6.282 349.926 C 6.768 350.583,7.278 351.572,7.417 352.126 C 7.665 353.114,12.954 358.800,13.626 358.800 C 13.814 358.800,14.291 359.137,14.684 359.549 C 15.078 359.961,16.231 360.418,17.246 360.565 C 18.261 360.712,19.431 361.090,19.846 361.404 C 21.005 362.281,378.356 362.289,379.938 361.412 C 380.522 361.088,381.744 360.637,382.653 360.409 C 383.563 360.181,384.530 359.726,384.802 359.397 C 385.075 359.069,385.603 358.800,385.977 358.800 C 386.350 358.800,387.039 358.395,387.507 357.900 C 387.975 357.405,388.863 356.517,389.479 355.927 C 391.468 354.024,392.280 353.019,392.569 352.102 C 392.725 351.609,393.132 350.925,393.475 350.582 C 394.705 349.352,394.765 342.330,394.761 200.400 C 394.757 53.128,394.738 51.265,393.257 49.381 C 392.785 48.782,392.400 48.022,392.400 47.692 C 392.400 47.362,391.995 46.674,391.500 46.164 C 388.126 42.688,386.557 41.200,386.264 41.200 C 386.078 41.200,385.495 40.861,384.968 40.446 C 384.441 40.031,383.222 39.574,382.259 39.430 C 381.296 39.285,380.169 38.910,379.754 38.596 C 378.597 37.720,21.791 37.711,20.540 38.587 M366.386 67.574 C 366.669 68.103,366.800 110.013,366.800 200.000 C 366.800 289.987,366.669 331.897,366.386 332.426 C 365.733 333.646,34.267 333.646,33.614 332.426 C 33.035 331.343,33.035 68.657,33.614 67.574 C 34.267 66.354,365.733 66.354,366.386 67.574 M97.600 105.507 C 97.050 105.598,96.330 105.902,96.000 106.183 C 95.670 106.463,94.860 106.818,94.200 106.972 C 93.051 107.240,89.200 110.590,89.200 111.322 C 89.200 111.515,88.840 112.131,88.400 112.691 C 87.510 113.822,87.187 121.297,88.006 121.804 C 88.229 121.941,88.753 122.717,89.171 123.527 C 89.588 124.337,91.746 126.853,93.965 129.117 C 98.899 134.151,98.922 133.522,93.600 138.836 C 91.180 141.252,89.196 143.447,89.191 143.714 C 89.186 143.981,88.830 144.650,88.400 145.200 C 87.229 146.698,87.229 153.540,88.400 154.600 C 88.840 154.998,89.200 155.623,89.200 155.989 C 89.200 156.900,91.663 159.600,92.495 159.600 C 92.865 159.600,93.515 159.972,93.938 160.426 C 95.087 161.659,102.290 161.659,103.858 160.426 C 104.435 159.972,105.069 159.600,105.267 159.600 C 105.464 159.600,107.594 157.620,110.000 155.200 C 112.406 152.780,114.570 150.800,114.809 150.800 C 115.476 150.800,118.000 152.936,118.000 153.500 C 118.000 153.775,118.225 154.004,118.500 154.009 C 118.775 154.013,119.540 154.662,120.200 155.449 C 122.068 157.677,122.842 158.346,125.718 160.214 C 127.805 161.570,134.471 161.689,136.109 160.400 C 136.669 159.960,137.294 159.600,137.499 159.600 C 138.882 159.600,141.567 155.454,141.987 152.670 C 142.931 146.412,142.238 144.827,135.540 137.927 L 132.080 134.363 132.714 133.081 C 133.062 132.377,134.844 130.326,136.674 128.525 C 138.503 126.723,140.000 125.115,140.000 124.950 C 140.000 124.786,140.370 124.257,140.823 123.775 C 141.361 123.203,141.776 121.980,142.022 120.250 C 142.511 116.792,141.944 112.618,140.823 111.425 C 140.370 110.943,140.000 110.274,140.000 109.938 C 140.000 109.603,139.550 109.123,139.000 108.873 C 138.450 108.622,138.000 108.240,138.000 108.024 C 138.000 107.808,137.065 107.353,135.923 107.014 C 134.780 106.675,133.713 106.183,133.552 105.922 C 133.094 105.181,129.366 105.326,128.490 106.118 C 128.082 106.488,127.149 106.910,126.417 107.057 C 125.438 107.252,123.990 108.419,120.935 111.474 C 114.923 117.486,115.191 117.465,110.115 112.326 C 106.009 108.168,104.907 107.289,103.400 106.967 C 102.740 106.826,101.930 106.486,101.600 106.210 C 100.882 105.611,98.983 105.277,97.600 105.507 M300.000 105.507 C 299.450 105.598,298.730 105.895,298.400 106.167 C 298.070 106.439,297.062 106.872,296.159 107.129 C 294.901 107.488,293.593 108.535,290.559 111.616 C 284.691 117.573,285.170 117.579,279.045 111.454 C 275.531 107.941,274.621 107.240,273.274 107.012 C 272.394 106.864,271.342 106.491,270.937 106.184 C 269.952 105.437,267.425 105.447,266.800 106.200 C 266.526 106.530,265.919 106.800,265.451 106.801 C 264.983 106.801,263.970 107.148,263.200 107.573 C 262.430 107.997,261.395 108.533,260.900 108.762 C 260.405 108.992,260.000 109.488,260.000 109.864 C 260.000 110.241,259.634 110.938,259.188 111.413 C 258.007 112.670,257.471 116.581,257.980 120.237 C 258.432 123.490,258.266 123.235,263.222 128.301 C 265.104 130.226,266.932 132.378,267.284 133.085 L 267.924 134.370 264.462 137.904 C 257.853 144.649,257.105 146.348,257.978 152.627 C 258.358 155.357,261.098 159.600,262.481 159.600 C 262.674 159.600,263.335 159.972,263.950 160.426 C 264.905 161.133,265.652 161.252,269.107 161.252 C 272.657 161.252,273.248 161.152,273.974 160.426 C 274.428 159.972,274.971 159.600,275.179 159.600 C 275.505 159.600,276.185 159.071,278.200 157.251 C 278.420 157.052,279.140 156.243,279.800 155.454 C 280.460 154.664,281.225 154.013,281.500 154.009 C 281.775 154.004,282.000 153.775,282.000 153.500 C 282.000 152.936,284.524 150.800,285.190 150.800 C 285.428 150.800,287.576 152.780,289.965 155.200 C 292.353 157.620,294.484 159.600,294.700 159.600 C 294.915 159.600,295.565 159.972,296.142 160.426 C 297.710 161.659,304.913 161.659,306.062 160.426 C 306.485 159.972,307.151 159.600,307.542 159.600 C 308.319 159.600,310.800 157.028,310.800 156.223 C 310.800 155.948,311.160 155.307,311.600 154.800 C 312.278 154.018,312.400 153.303,312.400 150.102 C 312.400 146.932,312.272 146.163,311.600 145.309 C 311.160 144.750,310.800 144.053,310.800 143.760 C 310.800 143.468,308.820 141.252,306.400 138.836 C 301.077 133.521,301.100 134.150,306.048 129.117 C 308.274 126.853,310.333 124.446,310.624 123.768 C 310.916 123.091,311.434 122.304,311.777 122.019 C 312.800 121.170,312.663 114.026,311.600 112.800 C 311.160 112.293,310.800 111.670,310.800 111.417 C 310.800 110.626,306.991 107.262,305.766 106.970 C 305.125 106.818,304.330 106.471,304.000 106.201 C 303.278 105.610,301.373 105.279,300.000 105.507 M87.994 260.739 C 87.227 261.145,86.126 261.593,85.547 261.735 C 84.410 262.012,82.000 264.055,82.000 264.741 C 82.000 264.971,81.734 265.309,81.410 265.491 C 79.485 266.568,79.485 277.432,81.410 278.509 C 81.734 278.691,82.000 279.029,82.000 279.259 C 82.000 280.030,84.519 282.044,85.767 282.272 C 86.445 282.396,87.450 282.791,88.000 283.149 C 88.910 283.741,94.760 283.818,153.000 284.000 L 217.000 284.200 217.200 297.059 C 217.375 308.311,217.483 310.010,218.066 310.659 C 218.433 311.066,218.860 312.089,219.017 312.932 C 219.173 313.774,219.532 314.552,219.814 314.661 C 220.096 314.769,220.535 315.340,220.789 315.929 C 221.043 316.518,221.976 317.540,222.862 318.200 C 223.749 318.860,224.893 319.782,225.404 320.249 C 225.916 320.717,226.974 321.219,227.755 321.365 C 228.535 321.512,229.457 321.914,229.803 322.260 C 231.510 323.967,277.079 324.197,278.895 322.507 C 279.393 322.044,280.500 321.536,281.355 321.378 C 283.570 320.968,285.362 319.786,288.430 316.707 C 291.767 313.361,291.626 314.130,291.860 298.008 C 292.089 282.288,290.860 284.000,301.915 284.000 C 309.636 284.000,310.632 283.923,311.753 283.243 C 312.439 282.827,313.580 282.364,314.289 282.214 C 315.599 281.937,318.000 280.025,318.000 279.259 C 318.000 279.029,318.259 278.695,318.576 278.517 C 320.491 277.446,320.502 266.561,318.590 265.491 C 318.266 265.309,318.000 264.971,318.000 264.741 C 318.000 264.055,315.590 262.012,314.453 261.735 C 313.874 261.593,312.773 261.145,312.006 260.739 C 309.825 259.583,90.175 259.583,87.994 260.739 " stroke="none" fill="#0685c4" fill-rule="evenodd"></path><path id="path1" d="M0.000 200.000 L 0.000 400.000 200.000 400.000 L 400.000 400.000 400.000 200.000 L 400.000 0.000 200.000 0.000 L 0.000 0.000 0.000 200.000 M381.858 37.646 C 382.266 38.002,383.140 38.421,383.800 38.577 C 386.602 39.242,393.200 44.959,393.200 46.723 C 393.200 46.926,393.539 47.523,393.954 48.050 C 394.803 49.131,395.862 52.619,396.428 56.208 C 397.193 61.051,396.710 345.535,395.934 347.400 C 395.568 348.280,395.158 349.500,395.024 350.111 C 394.812 351.072,393.232 353.597,391.199 356.223 C 390.449 357.192,387.373 359.600,386.885 359.600 C 386.687 359.600,386.198 359.960,385.800 360.400 C 385.402 360.840,384.786 361.200,384.432 361.200 C 384.078 361.200,383.071 361.605,382.194 362.100 L 380.600 363.000 200.000 363.000 L 19.400 363.000 17.000 362.020 C 15.680 361.481,14.228 360.716,13.774 360.320 C 13.320 359.924,12.775 359.600,12.562 359.600 C 11.926 359.600,7.619 355.198,6.937 353.851 C 6.589 353.163,6.066 352.327,5.775 351.994 C 5.484 351.661,5.063 350.671,4.840 349.794 C 4.616 348.917,4.154 347.210,3.813 346.000 C 2.848 342.575,3.074 54.409,4.043 52.600 C 4.396 51.940,4.800 50.800,4.939 50.068 C 5.079 49.335,5.555 48.275,5.996 47.714 C 6.438 47.152,6.800 46.478,6.800 46.216 C 6.800 45.449,11.281 41.136,12.700 40.537 C 13.415 40.236,14.000 39.819,14.000 39.610 C 14.000 39.401,14.765 39.026,15.700 38.776 C 16.635 38.526,17.634 38.130,17.921 37.895 C 19.086 36.939,28.211 36.891,201.258 36.945 C 366.234 36.995,381.177 37.053,381.858 37.646 M34.400 200.000 L 34.400 332.000 200.000 332.000 L 365.600 332.000 365.600 200.000 L 365.600 68.000 200.000 68.000 L 34.400 68.000 34.400 200.000 M104.386 105.812 C 105.796 106.532,108.035 108.404,110.690 111.082 C 113.720 114.137,114.964 115.148,115.398 114.905 C 115.722 114.724,117.835 112.759,120.094 110.538 C 122.352 108.318,124.650 106.367,125.200 106.203 C 125.750 106.039,126.534 105.612,126.943 105.253 C 128.276 104.082,134.128 104.373,136.600 105.732 C 141.960 108.679,145.860 117.268,143.497 120.919 C 143.183 121.404,142.794 122.339,142.631 122.997 C 142.469 123.655,142.086 124.465,141.780 124.797 C 141.475 125.129,139.627 127.042,137.675 129.049 C 132.913 133.944,132.952 133.468,136.974 137.555 C 141.359 142.011,142.213 143.091,143.040 145.232 C 143.981 147.670,144.236 152.177,143.497 153.319 C 143.183 153.804,142.794 154.739,142.631 155.397 C 142.325 156.639,142.073 156.993,140.072 159.000 C 136.976 162.105,136.712 162.200,131.216 162.200 C 126.229 162.200,126.190 162.193,124.400 160.933 C 122.516 159.607,116.800 154.131,116.800 153.652 C 116.800 153.500,116.270 153.175,115.621 152.931 C 114.476 152.498,114.345 152.585,110.921 156.062 C 104.352 162.734,97.441 164.695,92.741 161.220 C 92.131 160.769,91.476 160.400,91.284 160.400 C 90.877 160.400,89.231 158.477,87.689 156.200 C 86.666 154.689,86.605 154.342,86.603 149.966 C 86.599 144.428,86.774 144.084,92.667 138.040 C 97.045 133.549,97.058 133.898,92.323 129.143 C 86.846 123.643,86.600 123.148,86.600 117.626 L 86.600 112.984 88.063 110.792 C 89.809 108.174,91.437 106.596,92.800 106.198 C 93.350 106.037,94.070 105.675,94.400 105.394 C 96.038 103.998,101.262 104.217,104.386 105.812 M273.482 105.593 C 274.310 106.037,275.154 106.400,275.357 106.400 C 275.560 106.400,277.591 108.239,279.870 110.488 C 282.148 112.736,284.280 114.725,284.606 114.907 C 285.045 115.153,286.331 114.093,289.563 110.820 C 291.963 108.389,294.044 106.400,294.188 106.400 C 294.332 106.400,295.448 105.928,296.669 105.350 C 299.229 104.139,304.152 104.107,305.502 105.293 C 305.886 105.630,306.606 106.029,307.102 106.180 C 308.517 106.611,310.278 108.280,311.905 110.732 L 313.400 112.984 313.397 117.592 C 313.393 123.111,313.263 123.376,307.865 128.908 C 302.913 133.983,302.938 133.560,307.329 138.054 C 313.234 144.096,313.400 144.423,313.400 149.999 C 313.400 154.522,313.363 154.722,312.204 156.434 C 310.781 158.536,309.127 160.400,308.685 160.400 C 308.510 160.400,307.869 160.769,307.259 161.220 C 302.542 164.707,295.632 162.750,289.080 156.072 C 285.656 152.582,285.529 152.496,284.380 152.930 C 283.731 153.175,283.200 153.501,283.200 153.655 C 283.200 154.134,276.657 160.391,275.909 160.629 C 275.519 160.753,275.200 161.003,275.200 161.184 C 275.200 162.996,264.733 162.891,262.270 161.054 C 259.552 159.028,257.205 156.262,257.187 155.066 C 257.180 154.590,256.910 153.851,256.587 153.424 C 256.199 152.910,256.000 151.684,256.000 149.800 C 256.000 147.916,256.199 146.690,256.587 146.176 C 256.910 145.749,257.180 145.110,257.187 144.755 C 257.205 143.834,259.077 141.519,263.004 137.556 C 267.044 133.481,267.084 133.979,262.324 129.079 C 257.538 124.153,257.703 124.356,257.372 122.997 C 257.212 122.339,256.837 121.445,256.540 121.011 C 255.912 120.093,255.789 114.578,256.389 114.207 C 256.603 114.074,256.958 113.299,257.179 112.483 C 257.540 111.146,261.414 106.400,262.145 106.400 C 262.299 106.400,263.095 106.094,263.913 105.720 C 267.226 104.206,270.806 104.158,273.482 105.593 M314.405 260.278 C 316.513 261.372,318.800 263.238,318.800 263.864 C 318.800 264.053,319.160 264.432,319.600 264.707 C 320.040 264.982,320.406 265.520,320.414 265.903 C 320.421 266.287,320.775 267.320,321.200 268.200 C 322.219 270.309,322.219 273.691,321.200 275.800 C 320.775 276.680,320.421 277.616,320.414 277.879 C 320.388 278.791,316.097 283.195,315.231 283.198 C 314.919 283.199,314.315 283.515,313.890 283.900 C 313.214 284.513,311.920 284.625,303.459 284.800 L 293.800 285.000 293.600 298.200 C 293.425 309.774,293.314 311.558,292.700 312.680 C 292.315 313.384,292.000 314.233,292.000 314.566 C 292.000 316.074,285.392 321.645,282.874 322.260 C 282.283 322.405,281.173 322.855,280.406 323.261 C 279.639 323.668,278.495 324.000,277.864 324.000 C 277.232 324.000,275.609 324.315,274.258 324.700 C 272.085 325.319,269.759 325.400,254.200 325.400 C 238.434 325.400,236.401 325.327,234.686 324.700 C 233.633 324.315,232.125 324.000,231.333 324.000 C 230.542 324.000,229.333 323.661,228.647 323.246 C 227.961 322.831,226.950 322.355,226.400 322.189 C 223.733 321.385,218.000 315.573,218.000 313.676 C 218.000 313.339,217.685 312.715,217.300 312.290 C 216.672 311.597,216.579 310.152,216.400 298.259 L 216.200 285.000 151.542 284.800 C 90.687 284.612,86.838 284.559,86.110 283.900 C 85.685 283.515,85.081 283.199,84.769 283.198 C 83.903 283.195,79.612 278.791,79.586 277.879 C 79.579 277.616,79.225 276.680,78.800 275.800 C 78.324 274.814,78.027 273.356,78.027 272.000 C 78.027 270.644,78.324 269.186,78.800 268.200 C 79.225 267.320,79.579 266.287,79.586 265.903 C 79.594 265.520,79.960 264.982,80.400 264.707 C 80.840 264.432,81.204 264.026,81.209 263.804 C 81.221 263.227,83.493 261.382,85.600 260.237 L 87.400 259.259 199.863 259.230 L 312.326 259.200 314.405 260.278 " stroke="none" fill="rgb(242, 242, 242)" fill-rule="evenodd"></path><path id="path2" d="M22.200 37.615 C 13.036 39.002,6.692 44.707,4.783 53.277 C 3.673 58.261,3.527 340.842,4.632 346.000 C 6.095 352.827,11.727 359.987,16.432 361.001 C 17.184 361.164,18.340 361.590,19.000 361.948 C 20.402 362.710,374.765 363.182,378.385 362.427 C 384.417 361.169,391.988 356.105,393.045 352.621 C 393.182 352.170,393.532 351.529,393.822 351.197 C 394.112 350.865,394.675 349.245,395.073 347.597 C 396.150 343.136,396.455 61.971,395.389 55.200 C 393.851 45.424,387.782 39.208,378.200 37.595 C 375.718 37.177,24.962 37.197,22.200 37.615 M379.754 38.596 C 380.169 38.910,381.296 39.285,382.259 39.430 C 383.222 39.574,384.441 40.031,384.968 40.446 C 385.495 40.861,386.078 41.200,386.264 41.200 C 386.557 41.200,388.126 42.688,391.500 46.164 C 391.995 46.674,392.400 47.362,392.400 47.692 C 392.400 48.022,392.785 48.782,393.257 49.381 C 394.738 51.265,394.757 53.128,394.761 200.400 C 394.765 342.330,394.705 349.352,393.475 350.582 C 393.132 350.925,392.725 351.609,392.569 352.102 C 392.280 353.019,391.468 354.024,389.479 355.927 C 388.863 356.517,387.975 357.405,387.507 357.900 C 387.039 358.395,386.350 358.800,385.977 358.800 C 385.603 358.800,385.075 359.069,384.802 359.397 C 384.530 359.726,383.563 360.181,382.653 360.409 C 381.744 360.637,380.522 361.088,379.938 361.412 C 378.356 362.289,21.005 362.281,19.846 361.404 C 19.431 361.090,18.261 360.712,17.246 360.565 C 16.231 360.418,15.078 359.961,14.684 359.549 C 14.291 359.137,13.814 358.800,13.626 358.800 C 12.954 358.800,7.665 353.114,7.417 352.126 C 7.278 351.572,6.768 350.583,6.282 349.926 L 5.400 348.733 5.400 200.066 C 5.400 60.403,5.442 51.327,6.086 50.200 C 6.463 49.540,7.043 48.431,7.376 47.735 C 8.056 46.313,13.102 41.200,13.824 41.200 C 14.082 41.200,14.721 40.867,15.246 40.460 C 15.771 40.054,16.988 39.598,17.951 39.447 C 18.914 39.297,20.079 38.910,20.540 38.587 C 21.791 37.711,378.597 37.720,379.754 38.596 M33.614 67.574 C 33.035 68.657,33.035 331.343,33.614 332.426 C 34.267 333.646,365.733 333.646,366.386 332.426 C 366.669 331.897,366.800 289.987,366.800 200.000 C 366.800 110.013,366.669 68.103,366.386 67.574 C 365.733 66.354,34.267 66.354,33.614 67.574 M365.986 67.974 C 366.269 68.503,366.400 110.289,366.400 200.000 C 366.400 289.711,366.269 331.497,365.986 332.026 C 365.333 333.246,34.667 333.246,34.014 332.026 C 33.435 330.943,33.435 69.057,34.014 67.974 C 34.667 66.754,365.333 66.754,365.986 67.974 M97.000 105.190 C 88.905 107.267,84.006 117.148,88.124 123.091 C 88.716 123.944,89.200 124.760,89.200 124.903 C 89.200 125.046,90.890 126.855,92.955 128.924 C 98.043 134.020,98.030 133.531,93.209 138.450 C 87.534 144.242,87.020 145.210,87.036 150.100 C 87.047 153.472,87.167 154.159,87.924 155.183 C 88.406 155.835,88.800 156.522,88.800 156.712 C 88.800 160.436,100.658 163.630,104.350 160.900 C 105.020 160.405,105.710 159.999,105.884 159.998 C 106.058 159.997,108.075 158.107,110.367 155.798 C 112.659 153.489,114.697 151.600,114.895 151.600 C 115.094 151.600,117.194 153.490,119.563 155.800 C 121.932 158.110,124.055 160.000,124.281 160.000 C 124.507 160.000,125.201 160.400,125.823 160.890 C 129.131 163.492,136.923 161.762,140.336 157.668 C 145.363 151.639,143.954 145.193,135.871 137.242 C 132.221 133.651,132.212 133.720,136.901 129.078 C 142.739 123.298,144.129 119.704,142.655 114.200 C 140.888 107.602,132.408 102.782,127.800 105.757 C 127.360 106.041,126.505 106.395,125.901 106.544 C 125.269 106.700,122.886 108.682,120.301 111.202 C 114.763 116.600,115.186 116.590,110.079 111.445 C 104.683 106.008,100.887 104.193,97.000 105.190 M297.000 105.973 C 294.607 106.968,293.585 107.753,289.969 111.369 C 284.775 116.563,285.204 116.568,279.761 111.262 C 276.392 107.978,274.849 106.763,273.361 106.220 C 263.430 102.599,254.452 111.260,257.556 121.467 C 258.422 124.313,258.301 124.147,262.901 128.807 C 267.809 133.778,267.789 133.641,264.129 137.242 C 254.700 146.518,254.293 155.194,263.034 160.587 C 265.701 162.233,272.301 162.415,274.350 160.900 C 275.020 160.405,275.694 160.000,275.849 160.000 C 276.003 160.000,278.068 158.110,280.437 155.800 C 282.806 153.490,284.906 151.600,285.105 151.600 C 285.303 151.600,287.341 153.489,289.633 155.798 C 291.925 158.107,293.942 159.997,294.116 159.998 C 294.290 159.999,294.980 160.405,295.650 160.900 C 297.593 162.337,304.226 162.219,306.949 160.699 C 311.232 158.309,312.960 155.214,312.938 149.975 C 312.917 145.158,312.383 144.156,306.791 138.450 C 302.004 133.565,302.010 133.987,306.659 129.306 C 308.516 127.437,310.688 124.894,311.487 123.654 C 317.461 114.388,307.118 101.766,297.000 105.973 M101.600 106.210 C 101.930 106.486,102.740 106.826,103.400 106.967 C 104.907 107.289,106.009 108.168,110.115 112.326 C 115.191 117.465,114.923 117.486,120.935 111.474 C 123.990 108.419,125.438 107.252,126.417 107.057 C 127.149 106.910,128.082 106.488,128.490 106.118 C 129.366 105.326,133.094 105.181,133.552 105.922 C 133.713 106.183,134.780 106.675,135.923 107.014 C 137.065 107.353,138.000 107.808,138.000 108.024 C 138.000 108.240,138.450 108.622,139.000 108.873 C 139.550 109.123,140.000 109.603,140.000 109.938 C 140.000 110.274,140.370 110.943,140.823 111.425 C 141.361 111.997,141.776 113.220,142.022 114.950 C 142.511 118.408,141.944 122.582,140.823 123.775 C 140.370 124.257,140.000 124.786,140.000 124.950 C 140.000 125.115,138.503 126.723,136.674 128.525 C 134.844 130.326,133.062 132.377,132.714 133.081 L 132.080 134.363 135.540 137.927 C 142.238 144.827,142.931 146.412,141.987 152.670 C 141.567 155.454,138.882 159.600,137.499 159.600 C 137.294 159.600,136.669 159.960,136.109 160.400 C 134.471 161.689,127.805 161.570,125.718 160.214 C 122.842 158.346,122.068 157.677,120.200 155.449 C 119.540 154.662,118.775 154.013,118.500 154.009 C 118.225 154.004,118.000 153.775,118.000 153.500 C 118.000 152.936,115.476 150.800,114.809 150.800 C 114.570 150.800,112.406 152.780,110.000 155.200 C 107.594 157.620,105.464 159.600,105.267 159.600 C 105.069 159.600,104.435 159.972,103.858 160.426 C 102.290 161.659,95.087 161.659,93.938 160.426 C 93.515 159.972,92.865 159.600,92.495 159.600 C 91.663 159.600,89.200 156.900,89.200 155.989 C 89.200 155.623,88.840 154.998,88.400 154.600 C 87.229 153.540,87.229 146.698,88.400 145.200 C 88.830 144.650,89.186 143.981,89.191 143.714 C 89.196 143.447,91.180 141.252,93.600 138.836 C 98.922 133.522,98.899 134.151,93.965 129.117 C 91.746 126.853,89.588 124.337,89.171 123.527 C 88.753 122.717,88.229 121.941,88.006 121.804 C 87.187 121.297,87.510 113.822,88.400 112.691 C 88.840 112.131,89.200 111.515,89.200 111.322 C 89.200 110.590,93.051 107.240,94.200 106.972 C 94.860 106.818,95.670 106.463,96.000 106.183 C 97.176 105.183,100.388 105.199,101.600 106.210 M304.000 106.201 C 304.330 106.471,305.125 106.818,305.766 106.970 C 306.991 107.262,310.800 110.626,310.800 111.417 C 310.800 111.670,311.160 112.293,311.600 112.800 C 312.663 114.026,312.800 121.170,311.777 122.019 C 311.434 122.304,310.916 123.091,310.624 123.768 C 310.333 124.446,308.274 126.853,306.048 129.117 C 301.100 134.150,301.077 133.521,306.400 138.836 C 308.820 141.252,310.800 143.468,310.800 143.760 C 310.800 144.053,311.160 144.750,311.600 145.309 C 312.272 146.163,312.400 146.932,312.400 150.102 C 312.400 153.303,312.278 154.018,311.600 154.800 C 311.160 155.307,310.800 155.948,310.800 156.223 C 310.800 157.028,308.319 159.600,307.542 159.600 C 307.151 159.600,306.485 159.972,306.062 160.426 C 304.913 161.659,297.710 161.659,296.142 160.426 C 295.565 159.972,294.915 159.600,294.700 159.600 C 294.484 159.600,292.353 157.620,289.965 155.200 C 287.576 152.780,285.428 150.800,285.190 150.800 C 284.524 150.800,282.000 152.936,282.000 153.500 C 282.000 153.775,281.775 154.004,281.500 154.009 C 281.225 154.013,280.460 154.664,279.800 155.454 C 279.140 156.243,278.420 157.052,278.200 157.251 C 276.185 159.071,275.505 159.600,275.179 159.600 C 274.971 159.600,274.428 159.972,273.974 160.426 C 273.248 161.152,272.657 161.252,269.107 161.252 C 265.652 161.252,264.905 161.133,263.950 160.426 C 263.335 159.972,262.674 159.600,262.481 159.600 C 261.098 159.600,258.358 155.357,257.978 152.627 C 257.105 146.348,257.853 144.649,264.462 137.904 L 267.924 134.370 267.284 133.085 C 266.932 132.378,265.104 130.226,263.222 128.301 C 258.266 123.235,258.432 123.490,257.980 120.237 C 257.471 116.581,258.007 112.670,259.188 111.413 C 259.634 110.938,260.000 110.241,260.000 109.864 C 260.000 109.488,260.405 108.992,260.900 108.762 C 261.395 108.533,262.430 107.997,263.200 107.573 C 263.970 107.148,264.983 106.801,265.451 106.801 C 265.919 106.800,266.526 106.530,266.800 106.200 C 267.425 105.447,269.952 105.437,270.937 106.184 C 271.342 106.491,272.394 106.864,273.274 107.012 C 274.621 107.240,275.531 107.941,279.045 111.454 C 285.170 117.579,284.691 117.573,290.559 111.616 C 293.593 108.535,294.901 107.488,296.159 107.129 C 297.062 106.872,298.070 106.439,298.400 106.167 C 299.589 105.187,302.785 105.207,304.000 106.201 M87.096 260.400 C 86.275 260.840,85.369 261.200,85.083 261.200 C 84.797 261.200,83.638 262.121,82.507 263.246 C 78.365 267.366,77.708 275.455,81.204 279.284 C 83.436 281.727,84.309 282.437,85.600 282.853 C 86.370 283.101,87.253 283.506,87.561 283.752 C 87.968 284.077,105.831 284.255,152.361 284.400 L 216.600 284.600 216.820 297.400 C 217.059 311.285,217.169 311.959,219.801 315.750 C 221.470 318.152,226.304 322.000,227.652 322.000 C 227.966 322.000,228.598 322.263,229.057 322.585 C 233.214 325.496,273.166 325.472,280.050 322.554 C 281.288 322.029,282.499 321.600,282.742 321.600 C 283.581 321.600,287.700 318.709,289.423 316.912 C 292.482 313.719,292.800 311.894,292.800 297.518 C 292.800 288.595,292.928 285.232,293.280 284.880 C 293.623 284.537,296.212 284.399,302.380 284.398 C 308.941 284.396,311.254 284.263,312.061 283.841 C 312.645 283.537,313.725 283.082,314.461 282.832 C 317.795 281.696,321.159 276.312,321.190 272.062 C 321.219 268.136,317.213 261.200,314.917 261.200 C 314.631 261.200,313.725 260.840,312.904 260.400 C 311.422 259.605,310.648 259.600,200.000 259.600 C 89.352 259.600,88.578 259.605,87.096 260.400 M312.006 260.739 C 312.773 261.145,313.874 261.593,314.453 261.735 C 315.590 262.012,318.000 264.055,318.000 264.741 C 318.000 264.971,318.266 265.309,318.590 265.491 C 320.502 266.561,320.491 277.446,318.576 278.517 C 318.259 278.695,318.000 279.029,318.000 279.259 C 318.000 280.025,315.599 281.937,314.289 282.214 C 313.580 282.364,312.439 282.827,311.753 283.243 C 310.632 283.923,309.636 284.000,301.915 284.000 C 290.860 284.000,292.089 282.288,291.860 298.008 C 291.626 314.130,291.767 313.361,288.430 316.707 C 285.362 319.786,283.570 320.968,281.355 321.378 C 280.500 321.536,279.393 322.044,278.895 322.507 C 277.079 324.197,231.510 323.967,229.803 322.260 C 229.457 321.914,228.535 321.512,227.755 321.365 C 226.974 321.219,225.916 320.717,225.404 320.249 C 224.893 319.782,223.749 318.860,222.862 318.200 C 221.976 317.540,221.043 316.518,220.789 315.929 C 220.535 315.340,220.096 314.769,219.814 314.661 C 219.532 314.552,219.173 313.774,219.017 312.932 C 218.860 312.089,218.433 311.066,218.066 310.659 C 217.483 310.010,217.375 308.311,217.200 297.059 L 217.000 284.200 153.000 284.000 C 94.760 283.818,88.910 283.741,88.000 283.149 C 87.450 282.791,86.445 282.396,85.767 282.272 C 84.519 282.044,82.000 280.030,82.000 279.259 C 82.000 279.029,81.734 278.691,81.410 278.509 C 79.485 277.432,79.485 266.568,81.410 265.491 C 81.734 265.309,82.000 264.971,82.000 264.741 C 82.000 264.055,84.410 262.012,85.547 261.735 C 86.126 261.593,87.227 261.145,87.994 260.739 C 90.175 259.583,309.825 259.583,312.006 260.739 " stroke="none" fill="#0685c4" fill-rule="evenodd"></path><path id="path3" d="M19.921 37.178 C 19.107 37.337,18.207 37.660,17.921 37.895 C 17.634 38.130,16.635 38.526,15.700 38.776 C 14.765 39.026,14.000 39.401,14.000 39.610 C 14.000 39.819,13.415 40.236,12.700 40.537 C 11.281 41.136,6.800 45.449,6.800 46.216 C 6.800 46.478,6.438 47.152,5.996 47.714 C 5.555 48.275,5.079 49.335,4.939 50.068 C 4.800 50.800,4.396 51.940,4.043 52.600 C 3.074 54.409,2.848 342.575,3.813 346.000 C 4.154 347.210,4.616 348.917,4.840 349.794 C 5.063 350.671,5.484 351.661,5.775 351.994 C 6.066 352.327,6.589 353.163,6.937 353.851 C 7.619 355.198,11.926 359.600,12.562 359.600 C 12.775 359.600,13.320 359.924,13.774 360.320 C 14.228 360.716,15.680 361.481,17.000 362.020 L 19.400 363.000 200.000 363.000 L 380.600 363.000 382.194 362.100 C 383.071 361.605,384.078 361.200,384.432 361.200 C 384.786 361.200,385.402 360.840,385.800 360.400 C 386.198 359.960,386.687 359.600,386.885 359.600 C 387.373 359.600,390.449 357.192,391.199 356.223 C 393.232 353.597,394.812 351.072,395.024 350.111 C 395.158 349.500,395.568 348.280,395.934 347.400 C 396.710 345.535,397.193 61.051,396.428 56.208 C 395.862 52.619,394.803 49.131,393.954 48.050 C 393.539 47.523,393.200 46.926,393.200 46.723 C 393.200 44.959,386.602 39.242,383.800 38.577 C 383.140 38.421,382.266 38.002,381.858 37.646 C 381.068 36.958,23.416 36.496,19.921 37.178 M378.200 37.595 C 387.782 39.208,393.851 45.424,395.389 55.200 C 396.455 61.971,396.150 343.136,395.073 347.597 C 394.675 349.245,394.112 350.865,393.822 351.197 C 393.532 351.529,393.182 352.170,393.045 352.621 C 391.988 356.105,384.417 361.169,378.385 362.427 C 374.765 363.182,20.402 362.710,19.000 361.948 C 18.340 361.590,17.184 361.164,16.432 361.001 C 11.727 359.987,6.095 352.827,4.632 346.000 C 3.527 340.842,3.673 58.261,4.783 53.277 C 6.417 45.940,10.875 41.060,18.200 38.592 C 19.300 38.221,21.100 37.782,22.200 37.615 C 24.962 37.197,375.718 37.177,378.200 37.595 M34.014 67.974 C 33.435 69.057,33.435 330.943,34.014 332.026 C 34.422 332.789,36.713 332.800,200.000 332.800 C 363.287 332.800,365.578 332.789,365.986 332.026 C 366.565 330.943,366.565 69.057,365.986 67.974 C 365.333 66.754,34.667 66.754,34.014 67.974 M365.600 200.000 L 365.600 332.000 200.000 332.000 L 34.400 332.000 34.400 200.000 L 34.400 68.000 200.000 68.000 L 365.600 68.000 365.600 200.000 M95.800 104.664 C 95.360 104.784,94.730 105.113,94.400 105.394 C 94.070 105.675,93.350 106.037,92.800 106.198 C 91.437 106.596,89.809 108.174,88.063 110.792 L 86.600 112.984 86.600 117.626 C 86.600 123.148,86.846 123.643,92.323 129.143 C 97.058 133.898,97.045 133.549,92.667 138.040 C 86.774 144.084,86.599 144.428,86.603 149.966 C 86.605 154.342,86.666 154.689,87.689 156.200 C 89.231 158.477,90.877 160.400,91.284 160.400 C 91.476 160.400,92.131 160.769,92.741 161.220 C 97.441 164.695,104.352 162.734,110.921 156.062 C 114.345 152.585,114.476 152.498,115.621 152.931 C 116.270 153.175,116.800 153.500,116.800 153.652 C 116.800 154.131,122.516 159.607,124.400 160.933 C 126.190 162.193,126.229 162.200,131.216 162.200 C 136.712 162.200,136.976 162.105,140.072 159.000 C 142.073 156.993,142.325 156.639,142.631 155.397 C 142.794 154.739,143.183 153.804,143.497 153.319 C 144.236 152.177,143.981 147.670,143.040 145.232 C 142.213 143.091,141.359 142.011,136.974 137.555 C 132.952 133.468,132.913 133.944,137.675 129.049 C 139.627 127.042,141.475 125.129,141.780 124.797 C 142.086 124.465,142.469 123.655,142.631 122.997 C 142.794 122.339,143.183 121.404,143.497 120.919 C 145.860 117.268,141.960 108.679,136.600 105.732 C 134.128 104.373,128.276 104.082,126.943 105.253 C 126.534 105.612,125.750 106.039,125.200 106.203 C 124.650 106.367,122.352 108.318,120.094 110.538 C 117.835 112.759,115.722 114.724,115.398 114.905 C 114.964 115.148,113.720 114.137,110.690 111.082 C 105.025 105.368,100.449 103.396,95.800 104.664 M266.400 104.744 C 265.850 104.907,264.731 105.347,263.913 105.720 C 263.095 106.094,262.299 106.400,262.145 106.400 C 261.414 106.400,257.540 111.146,257.179 112.483 C 256.958 113.299,256.603 114.074,256.389 114.207 C 255.789 114.578,255.912 120.093,256.540 121.011 C 256.837 121.445,257.212 122.339,257.372 122.997 C 257.703 124.356,257.538 124.153,262.324 129.079 C 267.084 133.979,267.044 133.481,263.004 137.556 C 259.077 141.519,257.205 143.834,257.187 144.755 C 257.180 145.110,256.910 145.749,256.587 146.176 C 256.199 146.690,256.000 147.916,256.000 149.800 C 256.000 151.684,256.199 152.910,256.587 153.424 C 256.910 153.851,257.180 154.590,257.187 155.066 C 257.205 156.262,259.552 159.028,262.270 161.054 C 264.733 162.891,275.200 162.996,275.200 161.184 C 275.200 161.003,275.519 160.753,275.909 160.629 C 276.657 160.391,283.200 154.134,283.200 153.655 C 283.200 153.501,283.731 153.175,284.380 152.930 C 285.529 152.496,285.656 152.582,289.080 156.072 C 295.632 162.750,302.542 164.707,307.259 161.220 C 307.869 160.769,308.510 160.400,308.685 160.400 C 309.127 160.400,310.781 158.536,312.204 156.434 C 313.363 154.722,313.400 154.522,313.400 149.999 C 313.400 144.423,313.234 144.096,307.329 138.054 C 302.938 133.560,302.913 133.983,307.865 128.908 C 313.263 123.376,313.393 123.111,313.397 117.592 L 313.400 112.984 311.905 110.732 C 310.278 108.280,308.517 106.611,307.102 106.180 C 306.606 106.029,305.886 105.630,305.502 105.293 C 304.152 104.107,299.229 104.139,296.669 105.350 C 295.448 105.928,294.332 106.400,294.188 106.400 C 294.044 106.400,291.963 108.389,289.563 110.820 C 286.331 114.093,285.045 115.153,284.606 114.907 C 284.280 114.725,282.148 112.736,279.870 110.488 C 277.591 108.239,275.560 106.400,275.357 106.400 C 275.154 106.400,274.310 106.037,273.482 105.593 C 271.859 104.723,268.023 104.263,266.400 104.744 M102.989 106.047 C 105.574 107.132,106.493 107.832,110.079 111.445 C 115.186 116.590,114.763 116.600,120.301 111.202 C 122.886 108.682,125.269 106.700,125.901 106.544 C 126.505 106.395,127.360 106.041,127.800 105.757 C 132.408 102.782,140.888 107.602,142.655 114.200 C 144.129 119.704,142.739 123.298,136.901 129.078 C 132.212 133.720,132.221 133.651,135.871 137.242 C 143.954 145.193,145.363 151.639,140.336 157.668 C 136.923 161.762,129.131 163.492,125.823 160.890 C 125.201 160.400,124.507 160.000,124.281 160.000 C 124.055 160.000,121.932 158.110,119.563 155.800 C 117.194 153.490,115.094 151.600,114.895 151.600 C 114.697 151.600,112.659 153.489,110.367 155.798 C 108.075 158.107,106.058 159.997,105.884 159.998 C 105.710 159.999,105.020 160.405,104.350 160.900 C 100.658 163.630,88.800 160.436,88.800 156.712 C 88.800 156.522,88.406 155.835,87.924 155.183 C 87.167 154.159,87.047 153.472,87.036 150.100 C 87.020 145.210,87.534 144.242,93.209 138.450 C 98.030 133.531,98.043 134.020,92.955 128.924 C 90.890 126.855,89.200 125.046,89.200 124.903 C 89.200 124.760,88.716 123.944,88.124 123.091 C 84.750 118.222,87.974 109.014,94.000 106.306 C 98.003 104.508,99.237 104.472,102.989 106.047 M305.673 106.173 C 315.266 110.469,315.682 120.222,306.659 129.306 C 302.010 133.987,302.004 133.565,306.791 138.450 C 314.367 146.181,315.327 152.675,309.778 158.661 C 306.854 161.816,298.648 163.117,295.650 160.900 C 294.980 160.405,294.290 159.999,294.116 159.998 C 293.942 159.997,291.925 158.107,289.633 155.798 C 287.341 153.489,285.303 151.600,285.105 151.600 C 284.906 151.600,282.806 153.490,280.437 155.800 C 278.068 158.110,276.003 160.000,275.849 160.000 C 275.694 160.000,275.020 160.405,274.350 160.900 C 272.301 162.415,265.701 162.233,263.034 160.587 C 254.293 155.194,254.700 146.518,264.129 137.242 C 267.789 133.641,267.809 133.778,262.901 128.807 C 258.301 124.147,258.422 124.313,257.556 121.467 C 254.452 111.260,263.430 102.599,273.361 106.220 C 274.849 106.763,276.392 107.978,279.761 111.262 C 285.204 116.568,284.775 116.563,289.969 111.369 C 296.429 104.908,300.122 103.687,305.673 106.173 M85.600 260.237 C 83.493 261.382,81.221 263.227,81.209 263.804 C 81.204 264.026,80.840 264.432,80.400 264.707 C 79.960 264.982,79.594 265.520,79.586 265.903 C 79.579 266.287,79.225 267.320,78.800 268.200 C 78.324 269.186,78.027 270.644,78.027 272.000 C 78.027 273.356,78.324 274.814,78.800 275.800 C 79.225 276.680,79.579 277.616,79.586 277.879 C 79.612 278.791,83.903 283.195,84.769 283.198 C 85.081 283.199,85.685 283.515,86.110 283.900 C 86.838 284.559,90.687 284.612,151.542 284.800 L 216.200 285.000 216.400 298.259 C 216.579 310.152,216.672 311.597,217.300 312.290 C 217.685 312.715,218.000 313.339,218.000 313.676 C 218.000 315.573,223.733 321.385,226.400 322.189 C 226.950 322.355,227.961 322.831,228.647 323.246 C 229.333 323.661,230.542 324.000,231.333 324.000 C 232.125 324.000,233.633 324.315,234.686 324.700 C 236.401 325.327,238.434 325.400,254.200 325.400 C 269.759 325.400,272.085 325.319,274.258 324.700 C 275.609 324.315,277.232 324.000,277.864 324.000 C 278.495 324.000,279.639 323.668,280.406 323.261 C 281.173 322.855,282.283 322.405,282.874 322.260 C 285.392 321.645,292.000 316.074,292.000 314.566 C 292.000 314.233,292.315 313.384,292.700 312.680 C 293.314 311.558,293.425 309.774,293.600 298.200 L 293.800 285.000 303.459 284.800 C 311.920 284.625,313.214 284.513,313.890 283.900 C 314.315 283.515,314.919 283.199,315.231 283.198 C 316.097 283.195,320.388 278.791,320.414 277.879 C 320.421 277.616,320.775 276.680,321.200 275.800 C 322.219 273.691,322.219 270.309,321.200 268.200 C 320.775 267.320,320.421 266.287,320.414 265.903 C 320.406 265.520,320.040 264.982,319.600 264.707 C 319.160 264.432,318.800 264.053,318.800 263.864 C 318.800 263.238,316.513 261.372,314.405 260.278 L 312.326 259.200 199.863 259.230 L 87.400 259.259 85.600 260.237 M312.904 260.400 C 313.725 260.840,314.631 261.200,314.917 261.200 C 317.213 261.200,321.219 268.136,321.190 272.062 C 321.159 276.312,317.795 281.696,314.461 282.832 C 313.725 283.082,312.645 283.537,312.061 283.841 C 311.254 284.263,308.941 284.396,302.380 284.398 C 296.212 284.399,293.623 284.537,293.280 284.880 C 292.928 285.232,292.800 288.595,292.800 297.518 C 292.800 311.894,292.482 313.719,289.423 316.912 C 287.700 318.709,283.581 321.600,282.742 321.600 C 282.499 321.600,281.288 322.029,280.050 322.554 C 273.166 325.472,233.214 325.496,229.057 322.585 C 228.598 322.263,227.966 322.000,227.652 322.000 C 226.304 322.000,221.470 318.152,219.801 315.750 C 217.169 311.959,217.059 311.285,216.820 297.400 L 216.600 284.600 152.361 284.400 C 105.831 284.255,87.968 284.077,87.561 283.752 C 87.253 283.506,86.370 283.101,85.600 282.853 C 84.309 282.437,83.436 281.727,81.204 279.284 C 77.708 275.455,78.365 267.366,82.507 263.246 C 83.638 262.121,84.797 261.200,85.083 261.200 C 85.369 261.200,86.275 260.840,87.096 260.400 C 88.578 259.605,89.352 259.600,200.000 259.600 C 310.648 259.600,311.422 259.605,312.904 260.400 " stroke="none" fill="#848484" fill-rule="evenodd"></path></g></svg>