<?xml version="1.0" encoding="UTF-8" standalone="no" ?>
<!DOCTYPE svg PUBLIC "-//W3C//DTD SVG 1.1//EN" "http://www.w3.org/Graphics/SVG/1.1/DTD/svg11.dtd">
<svg xmlns="http://www.w3.org/2000/svg" xmlns:xlink="http://www.w3.org/1999/xlink" version="1.1" width="300" height="300" viewBox="0 0 1080 1080" xml:space="preserve">
<desc>Created with Fabric.js 5.2.4</desc>
<defs>
</defs>
<g transform="matrix(1 0 0 1 540 540)" id="8557f32e-5477-4798-96b1-a15581012ab3"  >
<rect style="stroke: none; stroke-width: 1; stroke-dasharray: none; stroke-linecap: butt; stroke-dashoffset: 0; stroke-linejoin: miter; stroke-miterlimit: 4; fill: rgb(255,255,255); fill-rule: nonzero; opacity: 1; visibility: hidden;" vector-effect="non-scaling-stroke"  x="-540" y="-540" rx="0" ry="0" width="1080" height="1080" />
</g>
<g transform="matrix(1 0 0 1 540 540)" id="5bc3ab76-a411-4966-bb45-6f7868c65ebb"  >
</g>
<g transform="matrix(1 0 0 1 540 540)"  >
<g style="" vector-effect="non-scaling-stroke"   >
		<g transform="matrix(1 0 0 1 0.61 0)"  >
<path style="stroke: none; stroke-width: 1; stroke-dasharray: none; stroke-linecap: butt; stroke-dashoffset: 0; stroke-linejoin: miter; stroke-miterlimit: 4; fill: rgb(208,222,242); fill-rule: nonzero; opacity: 1;" vector-effect="non-scaling-stroke"  transform=" translate(-223.49, -88.71)" d="M 289.79 177.43 C 278.52000000000004 177.43 278.52000000000004 164.94 267.24 164.94 C 255.95999999999998 164.94 256 177.43 244.69 177.43 C 233.38 177.43 233.42 164.94 222.14 164.94 C 210.85999999999999 164.94 210.86999999999998 177.43 199.58999999999997 177.43 C 188.30999999999997 177.43 188.32 164.94 177 164.94 C 165.68 164.94 165.73 177.43 154.45 177.43 C 144.04 177.43 169.73 45.78 169.73 45.78 C 172.88031924464528 19.631853542710548 195.0827821261147 -0.03208050088915826 221.42 0 L 222.86999999999998 0 C 249.1919673057062 -0.011816267962880277 271.37149009188283 19.647013415505945 274.52 45.779999999999966 C 274.52 45.78 307.48 177.43 289.79 177.43 Z" stroke-linecap="round" />
</g>
		<g transform="matrix(1 0 0 1 -20.15 -33.16)"  >
<path style="stroke: none; stroke-width: 1; stroke-dasharray: none; stroke-linecap: butt; stroke-dashoffset: 0; stroke-linejoin: miter; stroke-miterlimit: 4; fill: rgb(56,72,134); fill-rule: nonzero; opacity: 1;" vector-effect="non-scaling-stroke"  transform=" translate(-202.73, -55.56)" d="M 202.71 61.29 C 205.0293715137238 61.2980955868407 207.12486777299705 59.9071703993785 208.01806796516394 57.76666971638102 C 208.91126815733082 55.626169033383526 208.42598267106524 53.158320689873555 206.78879908329122 51.515402658709775 C 205.1516154955172 49.872484627546 202.68547903455985 49.37857329372018 200.5418683678575 50.26428378073026 C 198.39825770115516 51.14999426774034 197.00001412846677 53.24061435785248 197 55.56 C 197.0054526513031 58.7145338719496 199.55550447608238 61.2735175770258 202.71 61.29 Z" stroke-linecap="round" />
</g>
		<g transform="matrix(1 0 0 1 21.44 -33.16)"  >
<path style="stroke: none; stroke-width: 1; stroke-dasharray: none; stroke-linecap: butt; stroke-dashoffset: 0; stroke-linejoin: miter; stroke-miterlimit: 4; fill: rgb(56,72,134); fill-rule: nonzero; opacity: 1;" vector-effect="non-scaling-stroke"  transform=" translate(-244.32, -55.56)" d="M 244.32 61.29 C 246.6375686627601 61.290000000000006 248.72693459068287 59.89393032016557 249.61382972128968 57.75277606745197 C 250.50072485189648 55.61162181473836 250.01049037350202 53.14704666110419 248.37172185619892 51.508278143801085 C 246.7329533388958 49.86950962649798 244.26837818526164 49.379275148103524 242.12722393254805 50.26617027871033 C 239.98606967983443 51.15306540931713 238.59 53.24243133723991 238.59 55.56 C 238.59 58.72459161653044 241.15540838346956 61.28999999999999 244.32 61.29 Z" stroke-linecap="round" />
</g>
		<g transform="matrix(1 0 0 1 -31.96 -19.1)"  >
<path style="stroke: none; stroke-width: 1; stroke-dasharray: none; stroke-linecap: butt; stroke-dashoffset: 0; stroke-linejoin: miter; stroke-miterlimit: 4; fill: rgb(211,123,40); fill-rule: nonzero; opacity: 1;" vector-effect="non-scaling-stroke"  transform=" translate(-190.91, -69.62)" d="M 190.91 73.78 C 197.23 73.78 202.35 71.91 202.35 69.62 C 202.35 67.33000000000001 197.23 65.45 190.91 65.45 C 184.59 65.45 179.48 67.32000000000001 179.48 69.62 C 179.48 71.92 184.6 73.78 190.91 73.78 Z" stroke-linecap="round" />
</g>
		<g transform="matrix(1 0 0 1 33.61 -19.1)"  >
<path style="stroke: none; stroke-width: 1; stroke-dasharray: none; stroke-linecap: butt; stroke-dashoffset: 0; stroke-linejoin: miter; stroke-miterlimit: 4; fill: rgb(211,123,40); fill-rule: nonzero; opacity: 1;" vector-effect="non-scaling-stroke"  transform=" translate(-256.49, -69.62)" d="M 256.48 73.78 C 262.8 73.78 267.92 71.91 267.92 69.62 C 267.92 67.33000000000001 262.8 65.45 256.48 65.45 C 250.16000000000003 65.45 245.05 67.32000000000001 245.05 69.62 C 245.05 71.92 250.17 73.78 256.48 73.78 Z" stroke-linecap="round" />
</g>
		<g transform="matrix(1 0 0 1 0.62 -4.71)"  >
<path style="stroke: none; stroke-width: 1; stroke-dasharray: none; stroke-linecap: butt; stroke-dashoffset: 0; stroke-linejoin: miter; stroke-miterlimit: 4; fill: rgb(56,72,134); fill-rule: nonzero; opacity: 1;" vector-effect="non-scaling-stroke"  transform=" translate(-223.5, -84)" d="M 232 84 C 232 90.07 228.19 95 223.5 95 C 218.81 95 215 90.07 215 84 C 215 77.93 218.81 73 223.5 73 C 228.19 73 232 77.93 232 84 Z" stroke-linecap="round" />
</g>
		<g transform="matrix(1 0 0 1 -151 5.35)"  >
<path style="stroke: none; stroke-width: 1; stroke-dasharray: none; stroke-linecap: butt; stroke-dashoffset: 0; stroke-linejoin: miter; stroke-miterlimit: 4; fill: rgb(41,54,100); fill-rule: nonzero; opacity: 1;" vector-effect="non-scaling-stroke"  transform=" translate(-71.88, -94.07)" d="M 99.26 171.77 Q 85.5 171.77 79.26 164.31 Q 72.98 156.62 72.97 137.75 L 29.82 137.75 Q 14.69 137.75 7.219999999999999 130.53 Q 0 123.3 0 111.89 C -0.12810544486214814 104.13001400838161 2.061971123607595 96.50826900300757 6.289999999999999 90 Q 22.84 64.12 43.57 34.06 Q 55.69 16.360000000000003 76.89 16.360000000000003 L 97.16 16.590000000000003 Q 114.16 16.590000000000003 120.22999999999999 22.410000000000004 Q 126.28999999999999 28.010000000000005 126.28999999999999 42.22 L 126.28999999999999 103.72999999999999 Q 136.29 104.66 140.03 108.61999999999999 Q 143.77 112.57999999999998 143.76 121.21 Q 143.76 130.06 139.76 133.54999999999998 Q 135.76 136.82 126.24999999999999 137.54999999999998 Q 126.24999999999999 155.95 119.48999999999998 163.88 Q 112.72999999999998 171.81 99.26 171.77 Z M 72.7 104.66 L 73.4 55 L 42.17 104.66 Z" stroke-linecap="round" />
</g>
		<g transform="matrix(1 0 0 1 151 5.36)"  >
<path style="stroke: none; stroke-width: 1; stroke-dasharray: none; stroke-linecap: butt; stroke-dashoffset: 0; stroke-linejoin: miter; stroke-miterlimit: 4; fill: rgb(41,54,100); fill-rule: nonzero; opacity: 1;" vector-effect="non-scaling-stroke"  transform=" translate(-373.88, -94.08)" d="M 401.26 171.77 Q 387.51 171.77 381.26 164.31 Q 374.96999999999997 156.62 374.96999999999997 137.75 L 331.82 137.75 Q 316.69 137.75 309.21999999999997 130.53 Q 302 123.3 302 111.89 C 301.8718945551379 104.13001400838161 304.06197112360763 96.50826900300756 308.29 90 Q 324.83000000000004 64.14 345.57000000000005 34.08 Q 357.69000000000005 16.38 378.89000000000004 16.38 L 399.16 16.61 Q 416.16 16.61 422.23 22.43 Q 428.29 28.03 428.29 42.239999999999995 L 428.29 103.75 Q 438.29 104.68 442.03000000000003 108.64 Q 445.77000000000004 112.6 445.76000000000005 121.23 Q 445.76000000000005 130.08 441.76000000000005 133.57 Q 437.76000000000005 136.84 428.25000000000006 137.57 Q 428.25000000000006 155.97 421.49000000000007 163.89999999999998 Q 414.7300000000001 171.82999999999996 401.26 171.77 Z M 374.7 104.66 L 375.4 55 L 344.16999999999996 104.63 Z" stroke-linecap="round" />
</g>
</g>
</g>
</svg>