<?xml version="1.0" encoding="UTF-8" standalone="no"?>
<svg
   id="svg"
   version="1.1"
   width="400"
   height="300"
   viewBox="0, 0, 400,300"
   sodipodi:docname="emptyList.svg"
   inkscape:version="1.2.1 (9c6d41e4, 2022-07-14)"
   xmlns:inkscape="http://www.inkscape.org/namespaces/inkscape"
   xmlns:sodipodi="http://sodipodi.sourceforge.net/DTD/sodipodi-0.dtd"
   xmlns="http://www.w3.org/2000/svg"
   xmlns:svg="http://www.w3.org/2000/svg">
  <defs
     id="defs11" />
  <sodipodi:namedview
     id="namedview9"
     pagecolor="#ffffff"
     bordercolor="#000000"
     borderopacity="0.25"
     inkscape:showpageshadow="2"
     inkscape:pageopacity="0.0"
     inkscape:pagecheckerboard="0"
     inkscape:deskcolor="#d1d1d1"
     showgrid="false"
     inkscape:zoom="0.78666667"
     inkscape:cx="184.32203"
     inkscape:cy="150"
     inkscape:window-width="1309"
     inkscape:window-height="456"
     inkscape:window-x="0"
     inkscape:window-y="23"
     inkscape:window-maximized="0"
     inkscape:current-layer="svgg" />
  <g
     id="svgg">
    <path
       id="path0"
       d="M135.322 59.348 C 133.605 59.909,132.070 60.939,131.146 62.149 C 129.407 64.426,129.491 62.956,129.561 90.131 L 129.625 114.625 130.236 114.711 C 131.542 114.896,131.500 115.730,131.505 89.765 C 131.512 62.666,131.378 64.614,133.366 62.683 C 135.805 60.314,139.761 60.556,142.036 63.214 C 143.444 64.859,143.500 65.303,143.500 74.824 C 143.500 83.660,143.561 84.250,144.470 84.250 C 145.513 84.250,145.532 84.060,145.452 74.243 L 145.375 64.875 144.688 63.571 C 142.858 60.100,138.723 58.236,135.322 59.348 M160.250 73.734 C 158.852 74.160,157.508 75.043,156.432 76.239 C 154.436 78.460,154.500 77.827,154.500 95.295 L 154.500 110.750 151.393 110.750 C 148.215 110.750,147.500 110.954,147.500 111.862 C 147.500 112.663,148.167 112.761,153.157 112.693 L 158.125 112.625 158.207 112.049 C 158.319 111.259,157.831 110.750,156.960 110.750 L 156.232 110.750 156.303 95.438 C 156.373 80.526,156.389 80.096,156.896 79.000 C 159.053 74.340,165.611 74.324,167.926 78.973 C 168.345 79.814,168.380 81.202,168.443 99.603 C 168.521 121.984,168.582 121.181,166.658 123.105 C 164.767 124.996,164.738 125.000,151.611 125.000 C 139.222 125.000,139.228 124.999,139.621 126.237 C 139.869 127.018,140.077 127.029,152.502 126.943 C 163.044 126.870,164.236 126.820,165.321 126.405 C 166.974 125.773,169.047 123.814,169.780 122.193 L 170.375 120.875 170.375 100.225 L 170.375 79.574 169.500 77.859 C 167.778 74.483,163.721 72.674,160.250 73.734 M111.424 80.728 C 109.642 81.446,108.200 82.759,107.234 84.542 L 106.375 86.125 106.375 103.500 L 106.375 120.875 107.068 122.285 C 109.098 126.419,110.402 126.858,120.938 126.950 L 129.500 127.024 129.500 134.753 C 129.500 143.273,129.617 143.883,130.994 142.506 C 131.633 141.867,131.800 122.255,131.173 121.399 C 130.357 120.283,129.635 120.973,129.500 123.000 L 129.375 124.875 121.125 124.875 C 111.284 124.875,110.391 124.603,108.825 121.125 C 108.193 119.721,107.985 88.140,108.596 86.347 C 110.610 80.435,119.098 81.072,120.248 87.222 C 120.393 87.997,120.500 93.271,120.500 99.659 L 120.500 110.750 118.781 110.750 C 116.905 110.750,116.401 111.043,116.543 112.049 L 116.625 112.625 121.801 112.693 C 126.755 112.757,126.988 112.739,127.244 112.261 C 127.779 111.261,126.808 110.750,124.375 110.750 L 122.250 110.750 122.248 98.563 L 122.245 86.375 121.608 85.000 C 119.820 81.143,115.200 79.205,111.424 80.728 M143.800 88.300 C 142.888 89.212,143.562 92.750,144.648 92.750 C 145.349 92.750,145.500 92.328,145.500 90.375 C 145.500 88.094,144.827 87.273,143.800 88.300 M143.800 96.050 C 143.579 96.271,143.500 98.439,143.500 104.250 C 143.500 112.581,143.523 112.750,144.648 112.750 C 145.479 112.750,145.500 112.535,145.500 104.155 C 145.500 96.120,145.456 95.750,144.500 95.750 C 144.280 95.750,143.965 95.885,143.800 96.050 M143.800 129.300 C 143.284 129.816,143.375 172.339,143.893 172.857 C 144.358 173.322,144.391 173.326,145.016 172.991 C 145.489 172.738,145.500 172.232,145.500 151.166 C 145.500 128.790,145.509 129.000,144.500 129.000 C 144.280 129.000,143.965 129.135,143.800 129.300 M129.768 144.353 C 129.172 145.071,129.534 147.862,130.236 147.961 C 131.074 148.079,131.500 147.408,131.500 145.970 C 131.500 144.332,130.534 143.430,129.768 144.353 M129.667 149.167 C 129.575 149.258,129.500 155.277,129.500 162.542 L 129.500 175.750 103.634 175.750 C 78.347 175.750,77.762 175.761,77.510 176.232 C 77.171 176.864,77.423 177.473,78.090 177.633 C 79.846 178.055,304.828 177.613,305.096 177.188 C 305.298 176.868,305.298 176.632,305.096 176.313 C 304.835 175.897,300.383 175.872,218.160 175.812 L 131.500 175.749 131.500 162.858 C 131.500 154.450,131.410 149.799,131.241 149.484 C 130.992 149.019,130.012 148.821,129.667 149.167 M58.259 176.234 C 57.924 176.859,57.928 176.892,58.393 177.357 C 59.255 178.219,61.000 177.714,61.000 176.602 C 61.000 175.643,58.738 175.339,58.259 176.234 M66.050 176.050 C 65.885 176.215,65.750 176.530,65.750 176.750 C 65.750 177.607,66.290 177.750,69.532 177.750 C 72.771 177.750,73.500 177.549,73.500 176.657 C 73.500 175.897,72.874 175.750,69.625 175.750 C 67.411 175.750,66.253 175.847,66.050 176.050 M312.813 175.914 C 312.395 176.085,312.414 177.117,312.842 177.472 C 313.480 178.002,333.504 177.731,333.847 177.188 C 334.653 175.909,334.415 175.879,323.348 175.831 C 317.725 175.806,312.984 175.844,312.813 175.914 M338.579 176.188 C 338.493 176.428,338.383 176.700,338.334 176.792 C 337.879 177.651,344.334 178.258,345.766 177.491 C 346.311 177.200,346.400 176.500,345.950 176.050 C 345.417 175.517,338.773 175.641,338.579 176.188 M88.143 186.393 C 87.678 186.858,87.674 186.891,88.009 187.516 C 88.264 187.993,89.226 188.000,150.250 188.000 C 211.274 188.000,212.236 187.993,212.491 187.516 C 212.826 186.891,212.822 186.858,212.357 186.393 C 211.755 185.791,88.745 185.791,88.143 186.393 M217.061 186.789 C 216.231 187.619,216.994 188.572,218.395 188.454 C 219.487 188.361,220.024 187.741,219.598 187.063 C 219.264 186.530,217.510 186.340,217.061 186.789 M226.800 186.800 C 226.635 186.965,226.500 187.280,226.500 187.500 C 226.500 188.428,226.953 188.500,232.782 188.500 C 239.175 188.500,239.730 188.364,238.991 186.984 C 238.674 186.390,227.380 186.220,226.800 186.800 M127.300 197.800 C 127.135 197.965,127.000 198.280,127.000 198.500 C 127.000 199.505,126.892 199.500,146.782 199.500 C 163.887 199.500,166.007 199.457,166.357 199.107 C 166.827 198.637,166.857 198.207,166.450 197.800 C 166.016 197.366,127.734 197.366,127.300 197.800 M111.300 198.300 C 110.039 199.561,111.285 200.000,116.125 200.000 C 120.381 200.000,121.250 199.838,121.250 199.041 C 121.250 198.092,120.797 198.000,116.125 198.000 C 112.939 198.000,111.511 198.089,111.300 198.300 M171.010 198.363 C 170.233 199.299,171.569 200.336,172.935 199.856 C 174.327 199.366,173.823 198.000,172.250 198.000 C 171.734 198.000,171.176 198.163,171.010 198.363 M140.063 207.916 C 139.608 208.099,139.673 209.417,140.145 209.598 C 141.136 209.978,154.705 209.760,155.107 209.357 C 155.572 208.892,155.576 208.859,155.241 208.234 C 154.991 207.766,141.153 207.476,140.063 207.916 M158.813 207.910 C 158.235 208.153,158.435 209.474,159.073 209.634 C 161.199 210.168,163.506 209.360,162.848 208.313 C 162.574 207.877,159.599 207.580,158.813 207.910 "
       stroke="none"
       fill="#0685c4"
       fill-rule="evenodd" />
    <path
       id="path1"
       d="M135.338 61.407 C 134.053 61.863,132.587 63.257,131.974 64.605 C 131.534 65.575,131.511 66.802,131.505 89.765 C 131.500 115.730,131.542 114.896,130.236 114.711 L 129.625 114.625 129.498 90.750 L 129.371 66.875 129.311 89.339 L 129.250 111.803 128.266 111.709 C 127.724 111.657,127.327 111.660,127.382 111.715 C 127.437 111.771,127.369 112.028,127.230 112.288 C 126.993 112.731,126.658 112.756,121.801 112.693 L 116.625 112.625 116.543 112.049 C 116.401 111.043,116.905 110.750,118.781 110.750 L 120.500 110.750 120.500 99.659 C 120.500 93.271,120.393 87.997,120.248 87.222 C 119.098 81.072,110.610 80.435,108.596 86.347 C 107.985 88.140,108.193 119.721,108.825 121.125 C 110.391 124.603,111.284 124.875,121.125 124.875 L 129.375 124.875 129.500 123.000 C 129.617 121.243,129.663 121.120,130.236 121.039 C 131.476 120.864,131.500 121.071,131.500 131.910 L 131.500 141.974 130.875 142.649 C 130.246 143.327,130.051 144.000,130.482 144.000 C 131.050 144.000,131.500 144.844,131.500 145.909 C 131.500 147.184,131.155 148.000,130.616 148.000 C 130.415 148.000,130.250 148.225,130.250 148.500 C 130.250 148.775,130.415 149.000,130.616 149.000 C 131.441 149.000,131.500 149.918,131.500 162.859 L 131.500 175.750 138.000 175.750 L 144.500 175.750 144.500 174.556 C 144.500 173.669,144.371 173.250,143.999 172.932 C 143.211 172.258,143.335 129.539,144.125 129.132 C 144.516 128.931,144.608 128.670,144.547 127.938 L 144.470 127.000 142.378 127.000 C 140.274 127.000,139.500 126.706,139.500 125.907 C 139.500 125.031,139.919 125.000,151.630 125.000 C 164.735 125.000,164.767 124.996,166.658 123.105 C 168.582 121.181,168.521 121.984,168.443 99.603 C 168.380 81.202,168.345 79.814,167.926 78.973 C 165.611 74.324,159.053 74.340,156.896 79.000 C 156.389 80.096,156.373 80.526,156.303 95.438 L 156.232 110.750 156.960 110.750 C 157.831 110.750,158.319 111.259,158.207 112.049 L 158.125 112.625 153.068 112.693 C 148.226 112.757,147.997 112.739,147.695 112.255 C 147.251 111.544,145.600 111.541,145.375 112.250 C 145.190 112.832,144.210 112.929,143.777 112.408 C 143.199 111.711,143.526 96.191,144.125 95.882 C 144.533 95.672,144.625 95.373,144.625 94.250 C 144.625 93.127,144.533 92.828,144.125 92.618 C 143.689 92.393,143.625 92.108,143.625 90.375 C 143.625 88.642,143.689 88.357,144.125 88.132 C 144.833 87.768,144.730 84.627,143.987 83.935 C 143.522 83.501,143.500 83.083,143.500 74.832 C 143.500 65.303,143.444 64.859,142.036 63.214 C 140.366 61.263,137.742 60.555,135.338 61.407 M245.260 64.866 C 241.001 65.674,236.019 69.169,237.300 70.450 C 237.795 70.945,238.224 70.803,239.709 69.651 C 249.100 62.360,262.203 68.870,261.695 80.574 C 261.537 84.228,261.041 85.463,258.125 89.465 C 257.408 90.449,257.627 91.250,258.613 91.250 C 260.204 91.250,263.750 84.567,263.750 81.566 C 263.750 79.312,269.233 85.474,269.867 88.440 C 270.053 89.313,270.725 89.840,271.347 89.601 C 273.563 88.751,269.316 81.844,265.122 79.476 C 263.895 78.784,263.792 78.652,263.629 77.564 C 262.366 69.139,253.833 63.241,245.260 64.866 M225.143 68.143 C 224.665 68.620,224.657 68.777,225.077 69.351 C 225.543 69.988,226.601 69.792,226.707 69.049 C 226.863 67.943,225.901 67.385,225.143 68.143 M219.625 68.595 C 211.214 71.316,205.241 81.426,207.053 89.875 C 207.642 92.619,209.463 92.016,208.949 89.247 C 207.528 81.601,212.734 73.048,220.375 70.475 C 222.250 69.844,222.375 69.757,222.375 69.088 C 222.375 68.234,221.324 68.046,219.625 68.595 M229.393 68.643 C 228.613 69.423,229.122 69.997,231.250 70.736 C 232.834 71.286,235.677 72.935,236.267 73.646 C 236.707 74.176,237.690 74.080,238.013 73.475 C 238.833 71.944,230.669 67.367,229.393 68.643 M223.724 73.505 C 218.608 74.302,213.192 79.254,212.934 83.371 C 212.817 85.235,214.314 85.229,214.872 83.363 C 216.388 78.293,221.609 74.899,227.123 75.399 C 228.811 75.552,228.969 75.525,229.230 75.038 C 229.581 74.382,228.824 73.500,227.910 73.500 C 227.585 73.500,226.826 73.452,226.222 73.393 C 225.619 73.334,224.495 73.384,223.724 73.505 M154.367 95.625 C 154.367 104.013,154.399 107.408,154.437 103.170 C 154.476 98.931,154.476 92.069,154.437 87.920 C 154.399 83.770,154.367 87.237,154.367 95.625 M122.365 99.125 C 122.365 105.588,122.398 108.267,122.437 105.080 C 122.477 101.892,122.477 96.605,122.437 93.330 C 122.398 90.055,122.365 92.662,122.365 99.125 M270.550 91.050 C 269.922 91.678,270.389 92.750,271.291 92.750 C 271.534 92.750,271.853 92.525,272.000 92.250 C 272.540 91.241,271.347 90.253,270.550 91.050 M270.462 93.932 C 270.220 93.988,269.875 94.565,269.629 95.326 C 268.404 99.114,264.651 102.414,260.613 103.253 C 257.915 103.813,222.642 103.444,220.854 102.837 C 217.114 101.568,213.807 99.197,211.886 96.407 C 210.835 94.881,210.445 94.628,209.732 95.010 C 208.140 95.862,212.442 100.931,216.657 103.170 C 220.949 105.451,219.836 105.348,241.233 105.440 C 262.427 105.531,261.576 105.596,265.148 103.615 C 269.591 101.150,273.998 93.120,270.462 93.932 M195.300 121.300 C 194.395 122.205,195.364 123.000,197.372 123.000 C 199.412 123.000,199.750 122.858,199.750 122.000 C 199.750 121.011,196.155 120.445,195.300 121.300 M129.361 134.500 C 129.361 138.694,129.395 140.409,129.437 138.313 C 129.479 136.216,129.479 132.784,129.437 130.688 C 129.395 128.591,129.361 130.306,129.361 134.500 M263.590 129.603 C 257.677 130.730,250.847 135.464,253.266 136.759 C 253.845 137.069,253.822 137.082,255.974 135.202 C 259.551 132.078,266.152 130.486,270.436 131.714 C 272.038 132.174,273.250 131.184,272.177 130.293 C 271.221 129.500,266.235 129.099,263.590 129.603 M103.667 131.167 C 102.753 132.080,103.814 133.000,105.782 133.000 C 107.887 133.000,108.875 132.225,107.950 131.300 C 107.633 130.983,103.965 130.869,103.667 131.167 M225.300 131.300 C 224.332 132.268,225.305 133.000,227.559 133.000 C 229.258 133.000,229.750 132.742,229.750 131.852 C 229.750 130.993,226.064 130.536,225.300 131.300 M276.010 132.740 C 275.344 133.406,275.523 133.748,277.247 135.102 C 283.414 139.947,285.329 149.575,281.500 156.477 C 280.331 158.585,280.923 160.099,282.356 158.666 C 285.538 155.485,286.386 146.842,284.082 141.086 C 282.283 136.593,277.305 131.445,276.010 132.740 M263.070 135.369 C 258.777 136.576,254.339 140.303,255.643 141.607 C 256.222 142.187,256.364 142.125,257.831 140.658 C 261.182 137.308,265.947 136.121,270.329 137.547 C 272.079 138.117,272.793 138.028,272.937 137.223 C 273.223 135.621,266.601 134.377,263.070 135.369 M276.688 141.270 C 276.088 141.619,276.136 142.092,276.933 143.722 C 278.994 147.934,277.384 154.149,273.438 157.214 C 271.042 159.074,271.867 160.726,274.341 159.023 C 278.919 155.874,281.063 148.711,279.001 143.454 C 278.176 141.352,277.555 140.765,276.688 141.270 M254.143 142.893 C 253.430 143.605,253.768 144.500,254.750 144.500 C 255.379 144.500,255.750 144.128,255.750 143.497 C 255.750 143.222,255.026 142.500,254.750 142.500 C 254.632 142.500,254.359 142.677,254.143 142.893 M129.322 146.125 C 129.323 146.813,129.372 147.064,129.429 146.684 C 129.487 146.304,129.485 145.742,129.426 145.434 C 129.367 145.127,129.320 145.438,129.322 146.125 M129.366 162.750 C 129.366 169.969,129.398 172.922,129.437 169.313 C 129.476 165.703,129.476 159.797,129.437 156.188 C 129.398 152.578,129.366 155.531,129.366 162.750 M86.903 157.132 C 86.514 157.522,86.614 158.221,87.107 158.559 C 87.710 158.972,111.436 158.779,111.857 158.357 C 112.322 157.892,112.326 157.859,111.991 157.234 C 111.633 156.565,87.568 156.468,86.903 157.132 M116.893 157.143 C 115.660 158.376,116.704 158.750,121.375 158.750 C 125.467 158.750,126.250 158.589,126.250 157.750 C 126.250 156.911,125.467 156.750,121.375 156.750 C 117.991 156.750,117.218 156.818,116.893 157.143 M170.300 157.050 C 169.397 157.953,170.208 158.750,172.032 158.750 C 173.391 158.750,174.250 158.363,174.250 157.750 C 174.250 156.859,171.057 156.293,170.300 157.050 M201.761 157.230 C 200.920 158.801,200.621 158.774,217.598 158.694 C 233.585 158.619,233.430 158.633,232.597 157.313 C 232.143 156.594,202.144 156.513,201.761 157.230 M237.014 157.224 C 236.348 158.469,237.131 158.803,240.474 158.698 C 243.028 158.619,243.697 158.265,243.097 157.313 C 242.653 156.607,237.385 156.530,237.014 157.224 M278.010 160.613 C 277.346 161.413,278.321 162.642,279.188 162.097 C 280.053 161.552,279.745 160.250,278.750 160.250 C 278.509 160.250,278.176 160.413,278.010 160.613 M274.250 163.254 C 272.921 163.989,270.559 164.677,268.676 164.879 C 266.671 165.094,266.070 165.681,266.952 166.563 C 268.165 167.776,276.250 165.442,276.250 163.879 C 276.250 162.817,275.478 162.576,274.250 163.254 M99.800 165.300 C 99.635 165.465,99.500 165.780,99.500 166.000 C 99.500 166.950,99.891 167.000,107.375 167.000 C 112.700 167.000,114.730 166.920,114.950 166.700 C 115.379 166.271,115.321 165.331,114.855 165.152 C 114.056 164.845,100.117 164.983,99.800 165.300 M118.550 165.300 C 118.100 165.750,118.189 166.450,118.734 166.741 C 119.509 167.156,122.149 167.065,122.607 166.607 C 123.605 165.609,122.854 165.000,120.625 165.000 C 119.578 165.000,118.727 165.123,118.550 165.300 M151.176 165.157 C 150.256 166.077,151.305 167.000,153.269 167.000 C 155.093 167.000,155.598 166.700,155.457 165.701 C 155.374 165.119,151.684 164.650,151.176 165.157 M189.300 165.300 C 189.135 165.465,189.000 165.780,189.000 166.000 C 189.000 167.017,188.510 167.000,217.657 167.000 C 242.830 167.000,245.755 166.960,246.107 166.607 C 246.577 166.137,246.607 165.707,246.200 165.300 C 245.765 164.865,189.735 164.865,189.300 165.300 M250.300 165.300 C 249.850 165.750,249.939 166.450,250.484 166.741 C 251.332 167.195,260.136 167.078,260.607 166.607 C 261.921 165.293,260.991 165.000,255.500 165.000 C 252.022 165.000,250.513 165.087,250.300 165.300 M292.550 165.300 C 291.345 166.505,294.688 167.720,296.516 166.741 C 297.918 165.991,296.841 165.000,294.625 165.000 C 293.578 165.000,292.727 165.123,292.550 165.300 M302.667 165.167 C 302.395 165.438,302.477 166.377,302.800 166.700 C 303.191 167.091,317.042 167.129,317.766 166.741 C 318.311 166.450,318.400 165.750,317.950 165.300 C 317.624 164.974,302.987 164.847,302.667 165.167 "
       stroke="none"
       fill="#9cebfb"
       fill-rule="evenodd" />
    <path
       id="path2"
       d="M0.000 150.000 L 0.000 300.000 200.000 300.000 L 400.000 300.000 400.000 150.000 L 400.000 0.000 200.000 0.000 L 0.000 0.000 0.000 150.000 M140.375 59.434 C 142.069 60.025,144.492 62.415,145.132 64.125 C 145.901 66.179,146.016 83.234,145.267 83.983 C 144.539 84.711,144.529 87.265,145.250 88.182 C 145.628 88.663,145.750 89.196,145.750 90.375 C 145.750 91.554,145.628 92.087,145.250 92.568 C 144.915 92.994,144.750 93.582,144.750 94.352 C 144.750 95.167,144.895 95.645,145.250 96.000 C 145.728 96.478,145.750 96.833,145.750 104.125 L 145.750 111.750 146.565 111.750 C 147.109 111.750,147.483 111.584,147.692 111.250 C 147.977 110.793,148.275 110.750,151.120 110.750 L 154.236 110.750 154.305 95.063 C 154.374 79.587,154.382 79.359,154.915 78.206 C 157.848 71.859,166.722 71.708,169.797 77.952 L 170.375 79.125 170.375 100.250 L 170.375 121.375 169.633 122.714 C 167.428 126.696,166.346 127.000,154.366 127.000 L 144.750 127.000 144.750 127.875 C 144.750 128.417,144.940 128.940,145.250 129.250 C 145.742 129.742,145.750 130.083,145.750 151.125 C 145.750 172.167,145.742 172.508,145.250 173.000 C 144.917 173.333,144.750 173.833,144.750 174.500 L 144.750 175.500 224.636 175.500 L 304.523 175.500 305.148 176.125 C 305.747 176.725,305.899 176.750,308.875 176.750 C 311.851 176.750,312.003 176.725,312.602 176.125 L 313.227 175.500 323.251 175.500 L 333.274 175.500 333.887 176.162 C 334.394 176.709,334.447 176.893,334.192 177.224 C 333.956 177.531,334.004 177.523,334.399 177.188 C 334.682 176.947,335.074 176.752,335.270 176.754 C 335.564 176.757,335.560 176.800,335.250 177.000 C 335.025 177.146,334.994 177.244,335.173 177.246 C 335.337 177.248,335.540 177.137,335.625 177.000 C 335.710 176.862,336.328 176.750,336.998 176.750 C 337.974 176.750,338.246 176.656,338.366 176.277 C 338.765 175.022,345.903 175.159,346.284 176.430 C 346.352 176.657,348.087 176.752,353.125 176.805 C 359.726 176.874,359.903 176.889,361.125 177.492 C 362.724 178.281,362.673 178.234,362.243 178.530 C 361.961 178.723,362.004 178.747,362.425 178.629 C 363.031 178.458,364.135 179.329,363.866 179.765 C 363.782 179.901,363.862 179.981,364.044 179.944 C 364.227 179.906,364.654 180.433,365.000 181.125 C 366.664 184.454,365.136 188.671,361.560 190.616 C 360.632 191.121,360.277 191.126,317.125 191.250 C 268.784 191.389,273.225 191.227,271.559 192.913 C 269.572 194.924,270.215 198.450,272.875 200.135 C 273.548 200.562,274.307 200.624,280.250 200.743 C 286.974 200.877,289.250 201.269,289.250 202.294 C 289.250 202.407,289.373 202.500,289.522 202.500 C 291.025 202.500,293.089 209.361,291.842 210.208 C 291.707 210.300,291.452 210.732,291.276 211.168 C 290.718 212.549,288.912 214.087,287.146 214.687 C 285.461 215.259,249.986 215.501,249.300 214.945 C 249.064 214.755,248.973 214.741,249.076 214.911 C 249.249 215.201,248.755 215.500,248.101 215.500 C 247.562 215.500,246.316 216.986,245.846 218.189 C 245.122 220.045,245.481 221.598,246.963 223.011 C 248.574 224.547,247.690 224.466,263.085 224.489 L 276.546 224.508 278.210 225.293 C 282.809 227.459,283.679 233.357,279.912 236.831 C 278.711 237.939,277.590 238.585,277.243 238.370 C 277.109 238.288,277.000 238.333,277.000 238.471 C 277.000 238.609,276.775 238.678,276.500 238.625 C 276.225 238.572,276.000 238.635,276.000 238.764 C 276.000 238.911,245.624 239.000,195.213 239.000 L 114.426 239.000 112.992 238.477 C 110.742 237.657,108.500 235.435,108.500 234.026 C 108.500 233.760,108.384 233.503,108.243 233.456 C 107.184 233.103,108.321 228.502,109.875 226.851 C 111.905 224.696,112.148 224.642,120.376 224.500 L 127.627 224.375 128.589 223.500 C 130.999 221.310,131.124 218.826,128.954 216.286 C 128.584 215.854,128.115 215.500,127.912 215.500 C 127.246 215.500,126.749 215.204,126.924 214.911 C 127.029 214.736,126.944 214.748,126.705 214.942 C 126.307 215.264,83.478 215.271,82.000 214.950 C 81.656 214.875,81.284 214.799,81.173 214.782 C 81.062 214.764,81.037 214.642,81.118 214.511 C 81.200 214.379,80.992 214.295,80.656 214.323 C 79.420 214.428,76.500 211.411,76.500 210.030 C 76.500 209.755,76.388 209.460,76.250 209.375 C 75.902 209.160,75.926 206.500,76.277 206.500 C 76.429 206.500,76.495 206.349,76.424 206.164 C 76.215 205.617,77.116 203.904,78.132 202.917 C 79.733 201.363,81.251 200.808,84.462 200.605 C 86.981 200.446,87.375 200.355,88.220 199.743 C 90.743 197.916,90.637 193.983,88.015 192.125 L 86.957 191.375 63.666 191.312 C 46.817 191.266,40.064 191.167,39.250 190.955 C 36.828 190.323,34.256 187.549,34.481 185.813 C 34.504 185.641,34.404 185.500,34.261 185.500 C 33.925 185.500,33.915 182.832,34.250 182.625 C 34.387 182.540,34.500 182.226,34.500 181.928 C 34.500 180.708,37.353 177.611,38.457 177.633 C 38.687 177.638,38.947 177.540,39.034 177.415 C 39.335 176.985,40.651 176.908,49.286 176.820 C 57.540 176.736,57.952 176.709,58.071 176.257 C 58.346 175.206,61.250 175.492,61.250 176.571 C 61.250 177.209,65.184 176.793,65.897 176.080 C 66.502 175.475,66.591 175.462,69.747 175.543 C 73.060 175.627,73.425 175.736,73.570 176.686 C 73.616 176.989,73.741 177.324,73.848 177.431 C 73.954 177.538,74.004 177.456,73.958 177.250 C 73.892 176.951,74.216 176.860,75.563 176.801 C 76.852 176.745,77.250 176.640,77.250 176.357 C 77.250 175.543,78.594 175.500,103.891 175.500 L 129.250 175.500 129.250 162.510 L 129.250 149.519 129.797 149.010 L 130.344 148.500 129.797 147.990 C 129.027 147.273,128.995 144.664,129.750 144.192 C 130.025 144.020,130.250 143.707,130.250 143.495 C 130.250 143.284,130.025 142.918,129.750 142.683 C 129.270 142.272,129.250 141.946,129.250 134.627 L 129.250 127.000 121.009 127.000 C 110.587 127.000,109.265 126.592,107.117 122.714 L 106.375 121.375 106.375 103.625 L 106.375 85.875 106.981 84.644 C 109.969 78.573,118.682 78.606,121.675 84.699 L 122.375 86.125 122.446 98.438 L 122.518 110.750 124.757 110.750 C 126.725 110.750,127.034 110.810,127.308 111.250 C 127.516 111.583,127.891 111.750,128.429 111.750 L 129.238 111.750 129.306 88.438 C 129.382 62.702,129.265 64.584,130.936 62.166 C 132.805 59.460,136.984 58.250,140.375 59.434 M253.012 65.197 C 258.928 67.294,263.670 72.947,263.754 78.000 C 263.763 78.498,264.071 78.801,265.268 79.486 C 269.410 81.858,273.371 88.346,271.438 89.591 C 270.746 90.036,270.196 89.504,269.586 87.799 C 268.381 84.433,263.750 79.753,263.750 81.901 C 263.750 85.364,259.816 91.989,258.141 91.347 C 257.292 91.021,257.405 90.079,258.443 88.824 C 268.867 76.227,252.437 59.548,239.686 69.782 C 237.151 71.816,235.798 70.377,238.208 68.210 C 241.909 64.883,248.401 63.561,253.012 65.197 M226.700 68.050 C 227.430 68.780,226.525 70.091,225.481 69.817 C 224.879 69.660,224.586 68.623,225.003 68.122 C 225.374 67.674,226.286 67.636,226.700 68.050 M222.357 68.393 C 223.147 69.182,222.544 70.060,221.000 70.370 C 213.919 71.788,208.024 80.770,209.003 88.648 C 209.335 91.322,208.966 92.151,207.735 91.492 C 207.026 91.112,206.875 90.234,206.877 86.500 C 206.879 81.708,207.812 78.862,210.590 75.164 C 213.804 70.886,220.816 66.851,222.357 68.393 M233.347 69.347 C 237.072 71.086,238.850 72.864,237.857 73.857 C 237.294 74.421,237.069 74.362,235.648 73.284 C 233.870 71.934,232.365 71.122,230.680 70.601 C 229.569 70.257,229.202 70.020,229.090 69.574 C 228.697 68.009,230.299 67.924,233.347 69.347 M228.099 73.488 C 229.362 73.781,229.790 74.406,229.279 75.212 C 229.121 75.461,228.261 75.559,225.970 75.587 C 220.534 75.654,216.589 78.445,214.987 83.357 C 214.371 85.247,212.866 85.320,212.889 83.459 C 212.960 77.751,221.720 72.008,228.099 73.488 M271.997 91.122 C 272.174 91.335,272.239 91.761,272.148 92.122 C 271.945 92.933,270.662 93.020,270.250 92.250 C 269.665 91.156,271.202 90.164,271.997 91.122 M271.607 94.143 C 273.141 95.677,268.471 102.175,264.466 104.079 C 261.353 105.558,261.636 105.542,240.875 105.453 L 221.875 105.372 220.125 104.786 C 214.407 102.873,207.805 96.795,209.550 95.050 C 210.154 94.446,210.726 94.789,212.194 96.635 C 214.764 99.865,217.878 101.951,221.576 102.917 C 223.619 103.451,257.108 103.738,260.022 103.246 C 264.320 102.521,268.152 99.389,269.428 95.557 C 270.049 93.688,270.719 93.254,271.607 94.143 M199.847 121.563 C 200.417 122.469,199.762 122.868,197.575 122.947 C 195.334 123.028,194.820 122.751,195.104 121.619 C 195.311 120.794,199.334 120.747,199.847 121.563 M271.250 129.801 C 273.572 130.509,272.754 132.271,270.330 131.784 C 265.155 130.745,259.835 132.103,255.796 135.495 C 253.887 137.098,253.420 137.231,252.828 136.337 C 251.778 134.752,258.145 130.585,263.269 129.506 C 264.770 129.190,269.863 129.378,271.250 129.801 M107.609 130.994 C 108.306 131.259,108.487 132.163,107.950 132.700 C 107.311 133.339,103.778 133.084,103.455 132.376 C 102.839 131.024,105.425 130.164,107.609 130.994 M229.237 130.993 C 230.888 131.876,229.938 133.000,227.541 133.000 C 225.473 133.000,225.000 132.784,225.000 131.837 C 225.000 130.857,227.902 130.279,229.237 130.993 M277.900 132.959 C 285.413 138.419,287.885 150.203,283.113 157.813 C 281.270 160.752,279.799 159.337,281.473 156.235 C 285.062 149.580,283.677 141.606,277.950 135.960 C 275.506 133.551,275.233 133.117,275.800 132.550 C 276.270 132.080,276.845 132.192,277.900 132.959 M270.548 135.405 C 272.350 135.931,273.000 136.386,273.000 137.122 C 273.000 138.150,272.201 138.361,270.592 137.759 C 266.319 136.161,261.183 137.362,257.884 140.732 C 256.626 142.019,256.090 142.240,255.550 141.700 C 254.923 141.073,255.253 140.327,256.821 138.820 C 260.461 135.326,265.757 134.008,270.548 135.405 M278.681 142.750 C 281.465 148.360,279.409 155.627,273.970 159.396 C 272.349 160.519,270.907 159.139,272.428 157.919 C 277.647 153.733,279.161 148.216,276.515 143.029 C 276.070 142.156,276.061 142.025,276.413 141.522 C 277.086 140.561,277.782 140.938,278.681 142.750 M255.489 142.861 C 256.200 143.718,255.219 145.166,254.313 144.598 C 253.420 144.039,253.741 142.500,254.750 142.500 C 254.991 142.500,255.324 142.663,255.489 142.861 M112.097 157.313 C 112.917 158.613,112.857 158.620,99.501 158.690 C 86.805 158.757,86.500 158.735,86.500 157.769 C 86.500 156.751,86.612 156.743,99.463 156.810 C 110.919 156.870,111.841 156.907,112.097 157.313 M126.097 157.313 C 126.798 158.426,126.153 158.620,121.506 158.694 C 117.069 158.764,116.500 158.659,116.500 157.769 C 116.500 156.826,116.963 156.737,121.466 156.807 C 125.297 156.867,125.854 156.928,126.097 157.313 M174.098 157.313 C 174.667 158.219,174.009 158.625,171.973 158.625 C 170.033 158.625,169.639 158.302,170.102 157.096 C 170.319 156.530,173.722 156.714,174.098 157.313 M232.708 157.598 C 232.838 158.745,232.881 158.742,217.113 158.746 C 201.569 158.750,201.500 158.746,201.500 157.750 C 201.500 156.745,201.527 156.744,217.364 156.811 L 232.625 156.875 232.708 157.598 M243.097 157.313 C 243.721 158.304,243.045 158.619,240.135 158.696 C 236.977 158.780,235.899 158.201,237.058 157.042 C 237.576 156.524,242.746 156.756,243.097 157.313 M279.702 161.171 C 279.796 162.144,279.066 162.687,278.250 162.250 C 277.685 161.948,277.550 160.626,278.063 160.410 C 278.927 160.046,279.625 160.370,279.702 161.171 M276.107 163.143 C 276.620 163.655,276.604 164.079,276.054 164.576 C 274.385 166.087,267.717 167.617,266.800 166.700 C 265.946 165.846,266.973 164.750,268.628 164.750 C 269.977 164.750,272.298 164.130,273.723 163.389 C 275.103 162.671,275.586 162.621,276.107 163.143 M114.575 164.981 C 115.320 165.264,115.584 165.876,115.238 166.522 C 114.989 166.988,114.682 167.005,107.302 166.941 L 99.625 166.875 99.547 166.060 C 99.483 165.403,99.580 165.201,100.047 165.014 C 100.803 164.710,113.786 164.681,114.575 164.981 M122.190 164.908 C 122.860 165.088,123.187 166.098,122.747 166.628 C 122.359 167.096,119.003 167.153,118.550 166.700 C 117.273 165.423,119.684 164.237,122.190 164.908 M155.328 165.263 C 156.512 166.222,155.582 167.000,153.250 167.000 C 151.324 167.000,151.227 166.973,150.941 166.346 C 150.293 164.924,153.830 164.050,155.328 165.263 M245.859 164.994 C 246.556 165.259,246.737 166.163,246.200 166.700 C 245.683 167.217,189.661 167.126,189.143 166.607 C 188.564 166.028,188.845 165.247,189.750 164.923 C 190.457 164.671,245.189 164.739,245.859 164.994 M260.109 164.893 C 260.857 165.081,261.218 166.061,260.747 166.628 C 260.341 167.118,250.784 167.184,250.300 166.700 C 249.795 166.195,249.942 165.256,250.563 165.019 C 251.229 164.764,259.177 164.660,260.109 164.893 M296.359 164.994 C 297.056 165.259,297.237 166.163,296.700 166.700 C 295.768 167.632,292.250 166.934,292.250 165.817 C 292.250 164.866,294.721 164.371,296.359 164.994 M317.609 164.994 C 318.360 165.279,318.533 166.588,317.855 166.848 C 316.638 167.315,302.768 167.000,302.500 166.500 C 302.151 165.849,302.552 165.073,303.312 164.927 C 304.489 164.700,316.990 164.759,317.609 164.994 M226.500 188.359 C 226.836 188.793,226.834 188.828,226.479 188.696 C 226.250 188.610,226.083 188.680,226.083 188.861 C 226.083 189.103,226.248 189.113,226.802 188.904 C 227.198 188.754,227.376 188.587,227.198 188.533 C 227.020 188.478,226.706 188.307,226.500 188.154 C 226.167 187.906,226.167 187.929,226.500 188.359 M216.250 188.690 C 216.250 188.829,216.486 189.003,216.775 189.079 C 217.064 189.155,217.231 189.329,217.146 189.466 C 217.061 189.603,217.096 189.780,217.224 189.859 C 217.352 189.938,217.428 189.812,217.394 189.580 C 217.326 189.119,216.250 188.282,216.250 188.690 M217.980 188.851 C 218.203 189.120,218.196 189.228,217.948 189.316 C 217.770 189.380,217.715 189.528,217.826 189.646 C 218.088 189.926,218.492 189.270,218.325 188.835 C 218.254 188.651,218.082 188.500,217.943 188.500 C 217.788 188.500,217.803 188.638,217.980 188.851 M166.810 196.124 C 166.912 196.237,166.882 196.465,166.744 196.632 C 166.569 196.843,166.626 197.082,166.934 197.417 C 167.176 197.682,167.292 197.770,167.190 197.614 C 167.088 197.457,167.078 197.255,167.169 197.164 C 167.259 197.074,167.188 197.000,167.011 197.000 C 166.762 197.000,166.755 196.920,166.982 196.647 C 167.207 196.375,167.200 196.252,166.950 196.107 C 166.771 196.004,166.708 196.012,166.810 196.124 M126.821 197.063 C 126.815 197.234,126.721 197.590,126.612 197.854 C 126.473 198.191,126.501 198.279,126.708 198.151 C 126.868 198.052,127.000 197.802,127.000 197.595 C 127.000 197.389,127.111 197.289,127.247 197.373 C 127.389 197.461,127.431 197.360,127.345 197.138 C 127.167 196.672,126.838 196.625,126.821 197.063 M171.266 196.990 C 171.055 197.120,171.139 197.228,171.530 197.330 C 172.225 197.512,172.296 197.463,171.887 197.087 C 171.715 196.929,171.436 196.885,171.266 196.990 M166.953 198.426 C 167.206 198.523,167.182 198.661,166.846 199.032 C 166.539 199.371,166.490 199.590,166.678 199.778 C 166.866 199.966,167.000 199.952,167.135 199.733 C 167.259 199.533,167.225 199.486,167.039 199.601 C 166.615 199.863,166.687 199.364,167.125 199.000 C 167.513 198.678,167.575 198.774,167.533 199.625 L 167.508 200.125 167.723 199.625 C 167.844 199.345,167.843 199.005,167.721 198.852 C 167.602 198.702,167.555 198.529,167.616 198.467 C 167.678 198.405,167.480 198.343,167.177 198.328 C 166.873 198.313,166.773 198.357,166.953 198.426 M126.371 199.256 C 126.284 199.397,126.362 199.481,126.544 199.444 C 126.726 199.406,126.853 199.497,126.826 199.646 C 126.800 199.795,126.941 199.917,127.140 199.917 C 127.437 199.917,127.428 199.834,127.087 199.458 C 126.604 198.925,126.580 198.918,126.371 199.256 M63.342 201.259 C 64.829 201.816,66.506 203.401,67.098 204.810 C 67.984 206.922,68.250 208.647,67.765 209.137 C 67.636 209.268,67.477 209.671,67.412 210.032 C 67.099 211.776,65.594 213.469,63.500 214.432 C 60.477 215.822,50.218 215.432,48.653 213.867 C 48.451 213.665,48.193 213.495,48.080 213.488 C 47.595 213.460,45.953 211.013,45.590 209.776 C 44.516 206.120,46.746 202.125,50.498 200.984 C 52.045 200.513,61.915 200.725,63.342 201.259 M331.375 201.347 C 334.880 203.009,336.481 206.825,335.190 210.438 C 335.030 210.884,334.810 211.250,334.700 211.250 C 334.590 211.250,334.500 211.394,334.500 211.569 C 334.500 212.098,333.016 213.560,332.630 213.412 C 332.422 213.332,332.320 213.399,332.384 213.575 C 332.446 213.744,331.923 214.147,331.184 214.500 L 329.875 215.125 319.625 215.125 C 309.611 215.125,309.339 215.112,307.814 214.560 C 306.289 214.009,304.523 212.541,304.507 211.813 C 304.503 211.641,304.405 211.500,304.288 211.500 C 302.883 211.500,302.892 205.322,304.300 203.915 C 304.497 203.717,304.937 203.233,305.277 202.840 C 306.992 200.858,307.357 200.805,319.625 200.778 L 330.125 200.755 331.375 201.347 M162.139 206.722 C 162.338 206.921,163.467 206.899,163.343 206.699 C 163.278 206.594,162.955 206.530,162.624 206.557 C 162.294 206.585,162.075 206.659,162.139 206.722 M155.627 207.504 C 155.780 207.751,155.711 207.792,155.354 207.667 C 154.908 207.510,154.905 207.522,155.309 207.837 C 155.547 208.022,155.688 208.248,155.621 208.337 C 155.555 208.427,155.578 208.440,155.674 208.368 C 155.963 208.148,155.973 207.513,155.689 207.337 C 155.520 207.233,155.497 207.293,155.627 207.504 "
       stroke="none"
       fill-rule="evenodd"
       fill="rgb(242, 242, 242)" />
    <path
       id="path3"
       d="M247.563 66.679 C 247.941 66.736,248.559 66.736,248.938 66.679 C 249.316 66.622,249.006 66.575,248.250 66.575 C 247.494 66.575,247.184 66.622,247.563 66.679 M145.610 75.000 C 145.610 78.919,145.645 80.522,145.687 78.563 C 145.729 76.603,145.729 73.397,145.687 71.438 C 145.645 69.478,145.610 71.081,145.610 75.000 M259.000 68.875 C 259.466 69.356,259.904 69.750,259.973 69.750 C 260.042 69.750,259.716 69.356,259.250 68.875 C 258.784 68.394,258.346 68.000,258.277 68.000 C 258.208 68.000,258.534 68.394,259.000 68.875 M212.109 73.313 L 211.375 74.125 212.188 73.391 C 212.634 72.987,213.000 72.621,213.000 72.578 C 213.000 72.385,212.794 72.555,212.109 73.313 M213.737 74.688 L 212.875 75.625 213.813 74.763 C 214.685 73.962,214.865 73.750,214.674 73.750 C 214.632 73.750,214.210 74.172,213.737 74.688 M225.313 75.422 C 225.553 75.485,225.947 75.485,226.188 75.422 C 226.428 75.359,226.231 75.308,225.750 75.308 C 225.269 75.308,225.072 75.359,225.313 75.422 M217.609 78.813 L 216.875 79.625 217.688 78.891 C 218.134 78.487,218.500 78.121,218.500 78.078 C 218.500 77.885,218.294 78.055,217.609 78.813 M266.000 82.578 C 266.000 82.621,266.366 82.987,266.813 83.391 L 267.625 84.125 266.891 83.313 C 266.206 82.555,266.000 82.385,266.000 82.578 M144.584 86.000 C 144.584 87.031,144.628 87.453,144.682 86.938 C 144.736 86.422,144.736 85.578,144.682 85.063 C 144.628 84.547,144.584 84.969,144.584 86.000 M145.572 90.875 C 145.573 91.563,145.622 91.814,145.679 91.434 C 145.737 91.054,145.735 90.492,145.676 90.184 C 145.617 89.877,145.570 90.188,145.572 90.875 M144.575 94.250 C 144.575 95.006,144.622 95.316,144.679 94.938 C 144.736 94.559,144.736 93.941,144.679 93.563 C 144.622 93.184,144.575 93.494,144.575 94.250 M145.611 103.750 C 145.611 107.806,145.645 109.466,145.687 107.438 C 145.729 105.409,145.729 102.091,145.687 100.063 C 145.645 98.034,145.611 99.694,145.611 103.750 M224.440 103.427 C 224.751 103.487,225.201 103.484,225.440 103.422 C 225.679 103.359,225.425 103.310,224.875 103.313 C 224.325 103.316,224.129 103.367,224.440 103.427 M144.563 127.875 C 144.566 128.425,144.617 128.621,144.677 128.310 C 144.737 127.999,144.734 127.549,144.672 127.310 C 144.609 127.071,144.560 127.325,144.563 127.875 M145.619 150.875 C 145.619 162.563,145.650 167.307,145.687 161.419 C 145.725 155.530,145.725 145.968,145.687 140.169 C 145.650 134.370,145.619 139.188,145.619 150.875 M104.682 130.930 C 105.126 130.986,105.913 130.987,106.432 130.932 C 106.951 130.878,106.588 130.833,105.625 130.832 C 104.662 130.831,104.238 130.875,104.682 130.930 M226.432 130.930 C 226.876 130.986,227.663 130.987,228.182 130.932 C 228.701 130.878,228.338 130.833,227.375 130.832 C 226.412 130.831,225.988 130.875,226.432 130.930 M265.942 131.431 C 266.391 131.487,267.066 131.486,267.442 131.429 C 267.818 131.372,267.450 131.326,266.625 131.327 C 265.800 131.329,265.493 131.376,265.942 131.431 M266.066 134.929 C 266.446 134.987,267.008 134.985,267.316 134.926 C 267.623 134.867,267.313 134.820,266.625 134.822 C 265.938 134.823,265.686 134.872,266.066 134.929 M279.822 148.125 C 279.823 148.813,279.872 149.064,279.929 148.684 C 279.987 148.304,279.985 147.742,279.926 147.434 C 279.867 147.127,279.820 147.438,279.822 148.125 M103.953 164.937 C 105.920 164.979,109.070 164.979,110.953 164.937 C 112.835 164.894,111.225 164.860,107.375 164.860 C 103.525 164.860,101.985 164.895,103.953 164.937 M119.942 164.931 C 120.391 164.987,121.066 164.986,121.442 164.929 C 121.818 164.872,121.450 164.826,120.625 164.827 C 119.800 164.829,119.493 164.876,119.942 164.931 M152.313 164.929 C 152.691 164.986,153.309 164.986,153.688 164.929 C 154.066 164.872,153.756 164.825,153.000 164.825 C 152.244 164.825,151.934 164.872,152.313 164.929 M203.813 164.937 C 211.478 164.974,224.022 164.974,231.688 164.937 C 239.353 164.901,233.081 164.871,217.750 164.871 C 202.419 164.871,196.147 164.901,203.813 164.937 M253.563 164.936 C 254.766 164.982,256.734 164.982,257.938 164.936 C 259.141 164.890,258.156 164.853,255.750 164.853 C 253.344 164.853,252.359 164.890,253.563 164.936 M293.942 164.931 C 294.391 164.987,295.066 164.986,295.442 164.929 C 295.818 164.872,295.450 164.826,294.625 164.827 C 293.800 164.829,293.493 164.876,293.942 164.931 M307.063 164.937 C 308.953 164.979,312.047 164.979,313.938 164.937 C 315.828 164.894,314.281 164.860,310.500 164.860 C 306.719 164.860,305.172 164.894,307.063 164.937 M144.599 174.375 L 144.625 175.625 224.563 175.626 L 304.500 175.626 224.639 175.563 L 144.777 175.499 144.676 174.312 L 144.574 173.125 144.599 174.375 M67.938 175.685 C 68.797 175.734,70.203 175.734,71.063 175.685 C 71.922 175.636,71.219 175.596,69.500 175.596 C 67.781 175.596,67.078 175.636,67.938 175.685 M90.937 175.687 C 97.984 175.724,109.516 175.724,116.562 175.687 C 123.609 175.651,117.844 175.620,103.750 175.620 C 89.656 175.620,83.891 175.651,90.937 175.687 M318.188 175.687 C 320.972 175.727,325.528 175.727,328.313 175.687 C 331.097 175.647,328.819 175.614,323.250 175.614 C 317.681 175.614,315.403 175.647,318.188 175.687 M340.823 175.686 C 341.757 175.734,343.219 175.733,344.073 175.685 C 344.927 175.636,344.163 175.597,342.375 175.597 C 340.587 175.598,339.889 175.637,340.823 175.686 M40.958 176.875 C 40.890 176.944,40.464 177.043,40.012 177.096 C 39.560 177.148,39.120 177.293,39.033 177.417 C 38.946 177.540,38.687 177.638,38.457 177.633 C 37.353 177.611,34.500 180.708,34.500 181.928 C 34.500 182.226,34.388 182.540,34.250 182.625 C 33.915 182.832,33.925 185.500,34.261 185.500 C 34.404 185.500,34.504 185.641,34.481 185.813 C 34.256 187.549,36.828 190.323,39.250 190.955 C 40.064 191.167,46.817 191.266,63.666 191.312 L 86.957 191.375 88.015 192.125 C 90.637 193.983,90.743 197.916,88.220 199.743 C 87.375 200.355,86.981 200.446,84.462 200.605 C 81.251 200.808,79.733 201.363,78.132 202.917 C 77.116 203.904,76.215 205.617,76.424 206.164 C 76.495 206.349,76.429 206.500,76.277 206.500 C 75.926 206.500,75.902 209.160,76.250 209.375 C 76.388 209.460,76.500 209.755,76.500 210.030 C 76.500 211.411,79.420 214.428,80.656 214.323 C 80.992 214.295,81.200 214.379,81.118 214.511 C 81.037 214.642,81.062 214.764,81.173 214.782 C 81.284 214.799,81.656 214.875,82.000 214.950 C 83.478 215.271,126.307 215.264,126.705 214.942 C 126.944 214.748,127.029 214.736,126.924 214.911 C 126.749 215.204,127.246 215.500,127.912 215.500 C 128.115 215.500,128.584 215.854,128.954 216.286 C 131.124 218.826,130.999 221.310,128.589 223.500 L 127.627 224.375 120.376 224.500 C 112.148 224.642,111.905 224.696,109.875 226.851 C 108.321 228.502,107.184 233.103,108.243 233.456 C 108.384 233.503,108.500 233.760,108.500 234.026 C 108.500 235.435,110.742 237.657,112.992 238.477 L 114.426 239.000 195.213 239.000 C 245.624 239.000,276.000 238.911,276.000 238.764 C 276.000 238.635,276.225 238.572,276.500 238.625 C 276.775 238.678,277.000 238.609,277.000 238.471 C 277.000 238.333,277.109 238.288,277.243 238.370 C 277.590 238.585,278.711 237.939,279.912 236.831 C 283.679 233.357,282.809 227.459,278.210 225.293 L 276.546 224.508 263.085 224.489 C 247.690 224.466,248.574 224.547,246.963 223.011 C 245.481 221.598,245.122 220.045,245.846 218.189 C 246.316 216.986,247.562 215.500,248.101 215.500 C 248.755 215.500,249.249 215.201,249.076 214.911 C 248.973 214.741,249.064 214.755,249.300 214.945 C 249.986 215.501,285.461 215.259,287.146 214.687 C 288.912 214.087,290.718 212.549,291.276 211.168 C 291.452 210.732,291.707 210.300,291.842 210.208 C 293.089 209.361,291.025 202.500,289.522 202.500 C 289.373 202.500,289.250 202.407,289.250 202.294 C 289.250 201.269,286.974 200.877,280.250 200.743 C 273.089 200.600,273.045 200.592,271.559 199.087 C 269.572 197.076,270.210 193.571,272.875 191.857 C 273.607 191.387,274.691 191.372,317.125 191.250 C 360.277 191.126,360.632 191.121,361.560 190.616 C 365.136 188.671,366.664 184.454,365.000 181.125 C 364.654 180.433,364.227 179.906,364.044 179.944 C 363.862 179.981,363.782 179.901,363.866 179.765 C 364.135 179.329,363.031 178.458,362.425 178.629 C 362.004 178.747,361.961 178.723,362.243 178.530 C 362.673 178.234,362.724 178.281,361.125 177.492 C 359.902 176.888,359.730 176.874,353.063 176.804 C 346.463 176.735,345.895 176.792,346.563 177.465 C 346.813 177.717,346.788 177.747,346.438 177.613 C 346.197 177.521,346.000 177.543,346.000 177.661 C 346.000 178.032,339.049 177.812,338.493 177.423 C 338.224 177.234,338.077 177.006,338.168 176.915 C 338.259 176.824,337.759 176.750,337.056 176.750 C 336.354 176.750,335.710 176.862,335.625 177.000 C 335.540 177.137,335.337 177.248,335.173 177.246 C 334.992 177.244,335.022 177.143,335.250 176.990 C 335.533 176.800,335.440 176.763,334.875 176.837 C 334.462 176.892,334.153 177.063,334.188 177.218 C 334.222 177.373,334.131 177.500,333.985 177.500 C 333.840 177.500,333.773 177.584,333.836 177.688 C 333.932 177.842,314.635 177.846,312.813 177.691 C 312.296 177.648,312.138 177.444,312.223 176.930 C 312.240 176.823,310.735 176.767,308.877 176.805 C 307.019 176.844,305.509 176.977,305.522 177.103 C 305.534 177.228,305.376 177.424,305.170 177.540 C 304.704 177.801,77.504 177.946,77.665 177.686 C 77.729 177.582,77.606 177.429,77.392 177.347 C 77.178 177.265,77.069 177.091,77.150 176.960 C 77.238 176.816,76.546 176.742,75.398 176.773 C 73.818 176.815,73.547 176.881,73.785 177.167 C 74.015 177.444,73.982 177.477,73.619 177.338 C 73.343 177.232,73.228 177.262,73.323 177.416 C 73.506 177.713,73.712 177.694,69.625 177.745 C 67.838 177.767,66.160 177.702,65.896 177.600 C 65.536 177.461,65.469 177.497,65.623 177.746 C 65.762 177.971,65.731 178.018,65.526 177.891 C 65.306 177.755,65.299 177.617,65.500 177.375 C 65.931 176.856,65.446 176.719,63.383 176.773 C 61.831 176.814,61.436 176.912,61.068 177.345 C 60.636 177.853,60.638 177.857,61.125 177.496 C 61.571 177.165,61.593 177.166,61.327 177.508 C 60.967 177.971,58.144 177.994,58.094 177.534 C 58.077 177.378,58.048 177.137,58.031 177.000 C 57.999 176.746,41.210 176.623,40.958 176.875 M87.853 186.313 C 87.712 186.563,87.744 186.563,88.013 186.313 C 88.281 186.064,101.076 186.000,150.250 186.000 C 199.424 186.000,212.219 186.064,212.487 186.313 C 212.760 186.566,212.786 186.555,212.622 186.250 C 212.504 186.032,212.514 185.961,212.644 186.080 C 212.936 186.347,213.009 187.785,212.721 187.607 C 212.599 187.532,212.500 187.590,212.500 187.736 C 212.500 187.923,193.992 188.001,150.085 187.999 C 115.757 187.997,87.738 187.929,87.819 187.847 C 87.901 187.766,87.862 187.419,87.732 187.078 C 87.603 186.737,87.560 186.355,87.638 186.229 C 87.854 185.879,88.054 185.956,87.853 186.313 M218.765 186.529 L 219.893 186.588 219.893 187.641 C 219.893 188.457,219.812 188.662,219.530 188.554 C 219.297 188.465,219.233 188.520,219.349 188.708 C 219.448 188.868,219.417 189.000,219.280 189.000 C 219.142 189.000,218.960 188.887,218.875 188.750 C 218.644 188.376,218.177 188.448,218.325 188.835 C 218.488 189.259,218.093 189.926,217.833 189.667 C 217.727 189.560,217.782 189.385,217.957 189.277 C 218.339 189.041,217.958 188.663,217.059 188.388 C 216.747 188.292,216.551 188.119,216.623 188.003 C 216.695 187.887,216.644 187.755,216.510 187.709 C 216.377 187.663,216.505 187.251,216.795 186.794 C 217.085 186.337,217.393 186.077,217.480 186.217 C 217.566 186.357,218.144 186.497,218.765 186.529 M239.306 186.294 C 239.082 186.518,239.132 186.797,239.519 187.481 C 239.797 187.973,239.886 188.190,239.718 187.964 C 239.437 187.588,239.379 187.594,239.018 188.038 C 238.651 188.489,238.261 188.521,233.153 188.522 C 229.155 188.522,227.466 188.612,226.882 188.856 C 226.239 189.125,226.083 189.127,226.083 188.869 C 226.083 188.680,226.247 188.609,226.479 188.696 C 226.822 188.824,226.829 188.787,226.532 188.422 C 226.343 188.190,226.273 188.000,226.375 188.000 C 226.477 188.000,226.430 187.842,226.270 187.649 C 226.047 187.380,226.054 187.273,226.302 187.190 C 226.550 187.106,226.558 187.000,226.333 186.728 C 226.083 186.425,226.952 186.385,232.438 186.446 C 236.601 186.492,238.923 186.427,239.092 186.258 C 239.234 186.116,239.406 186.000,239.475 186.000 C 239.544 186.000,239.468 186.132,239.306 186.294 M217.394 189.580 C 217.428 189.812,217.352 189.938,217.224 189.859 C 217.096 189.780,217.061 189.603,217.146 189.466 C 217.231 189.329,217.064 189.155,216.775 189.079 C 216.486 189.003,216.250 188.829,216.250 188.690 C 216.250 188.282,217.326 189.119,217.394 189.580 M166.982 196.647 C 166.755 196.920,166.762 197.000,167.011 197.000 C 167.188 197.000,167.259 197.074,167.169 197.164 C 167.078 197.255,167.088 197.457,167.190 197.614 C 167.292 197.770,167.176 197.682,166.934 197.417 C 166.626 197.082,166.569 196.843,166.744 196.632 C 166.882 196.465,166.912 196.237,166.810 196.124 C 166.708 196.012,166.771 196.004,166.950 196.107 C 167.200 196.252,167.207 196.375,166.982 196.647 M127.342 197.129 C 127.470 197.463,129.779 197.506,146.905 197.495 C 166.185 197.483,166.325 197.487,166.801 197.997 C 167.064 198.280,167.414 198.434,167.577 198.340 C 167.741 198.247,167.792 198.262,167.690 198.374 C 167.588 198.487,167.602 198.702,167.721 198.852 C 167.843 199.005,167.844 199.345,167.723 199.625 L 167.508 200.125 167.533 199.625 C 167.575 198.774,167.513 198.678,167.125 199.000 C 166.687 199.364,166.615 199.863,167.039 199.601 C 167.229 199.483,167.259 199.533,167.125 199.749 C 166.968 200.004,166.850 199.975,166.587 199.615 C 166.402 199.362,166.250 199.260,166.250 199.390 C 166.250 199.628,127.934 199.624,127.313 199.386 C 127.141 199.320,127.000 198.974,127.000 198.618 C 127.000 198.187,126.902 198.031,126.708 198.151 C 126.501 198.279,126.473 198.191,126.612 197.854 C 126.721 197.590,126.815 197.234,126.821 197.063 C 126.838 196.629,127.166 196.671,127.342 197.129 M172.151 197.428 C 172.125 197.457,171.845 197.413,171.530 197.330 C 171.139 197.228,171.055 197.120,171.266 196.990 C 171.514 196.837,172.326 197.238,172.151 197.428 M173.136 197.732 C 173.057 197.860,173.205 198.031,173.463 198.113 C 173.847 198.235,173.903 198.413,173.768 199.069 L 173.602 199.875 171.911 199.888 C 170.980 199.896,170.152 199.794,170.071 199.662 C 169.989 199.531,170.049 199.501,170.204 199.597 C 170.637 199.864,170.898 198.503,170.471 198.200 C 170.202 198.008,170.222 197.984,170.563 198.094 C 170.803 198.171,171.000 198.148,171.000 198.043 C 171.000 197.938,171.418 197.824,171.928 197.790 C 172.439 197.755,172.907 197.676,172.970 197.614 C 173.171 197.412,173.284 197.493,173.136 197.732 M120.844 197.988 C 121.445 198.217,121.561 199.044,121.097 199.795 C 120.957 200.022,112.180 200.075,111.357 199.854 C 110.959 199.747,110.843 199.522,110.857 198.882 C 110.867 198.424,110.937 198.087,111.012 198.133 C 111.087 198.179,111.312 198.114,111.512 197.987 C 111.994 197.683,120.043 197.683,120.844 197.988 M127.087 199.458 C 127.428 199.834,127.437 199.917,127.140 199.917 C 126.941 199.917,126.800 199.795,126.826 199.646 C 126.853 199.497,126.726 199.406,126.544 199.444 C 126.362 199.481,126.284 199.397,126.371 199.256 C 126.580 198.918,126.604 198.925,127.087 199.458 M50.498 200.984 C 46.746 202.125,44.516 206.120,45.590 209.776 C 45.953 211.013,47.595 213.460,48.080 213.488 C 48.193 213.495,48.451 213.665,48.653 213.867 C 50.218 215.432,60.477 215.822,63.500 214.432 C 65.594 213.469,67.099 211.776,67.412 210.032 C 67.477 209.671,67.636 209.268,67.765 209.137 C 68.592 208.301,67.429 204.725,65.730 202.882 C 63.975 200.978,62.967 200.746,56.553 200.771 C 53.568 200.783,50.843 200.879,50.498 200.984 M308.358 200.985 C 307.262 201.247,305.995 202.010,305.277 202.840 C 304.937 203.233,304.497 203.717,304.300 203.915 C 302.892 205.322,302.883 211.500,304.288 211.500 C 304.405 211.500,304.503 211.641,304.507 211.813 C 304.523 212.541,306.289 214.009,307.814 214.560 C 309.339 215.112,309.611 215.125,319.625 215.125 L 329.875 215.125 331.184 214.500 C 331.923 214.147,332.446 213.744,332.384 213.575 C 332.320 213.399,332.422 213.332,332.630 213.412 C 333.016 213.560,334.500 212.098,334.500 211.569 C 334.500 211.394,334.590 211.250,334.700 211.250 C 334.810 211.250,335.030 210.884,335.190 210.438 C 336.481 206.825,334.880 203.009,331.375 201.347 L 330.125 200.755 319.625 200.778 C 313.850 200.791,308.780 200.884,308.358 200.985 M163.343 206.699 C 163.408 206.804,163.190 206.878,162.858 206.863 C 162.039 206.828,161.880 206.619,162.624 206.557 C 162.955 206.530,163.278 206.594,163.343 206.699 M155.902 207.881 C 155.931 208.083,155.853 208.311,155.728 208.389 C 155.376 208.606,155.458 209.053,155.813 208.850 C 155.984 208.752,155.844 208.942,155.500 209.273 L 154.875 209.875 147.625 209.815 C 143.637 209.782,140.245 209.706,140.087 209.645 C 139.929 209.584,139.728 209.605,139.642 209.691 C 139.291 210.042,138.788 209.942,138.938 209.550 C 139.039 209.289,139.127 209.255,139.192 209.452 C 139.247 209.617,139.391 209.692,139.512 209.618 C 139.636 209.541,139.626 209.207,139.490 208.850 C 139.187 208.051,139.189 207.933,139.502 208.126 C 139.640 208.212,139.810 208.134,139.880 207.953 C 139.980 207.690,141.570 207.636,147.888 207.681 C 154.046 207.725,155.733 207.670,155.596 207.431 C 155.499 207.263,155.516 207.213,155.634 207.320 C 155.752 207.427,155.872 207.680,155.902 207.881 M158.556 207.737 C 158.519 207.902,158.580 207.980,158.692 207.911 C 158.804 207.841,159.841 207.760,160.996 207.729 L 163.095 207.674 163.133 208.547 C 163.154 209.027,163.267 209.579,163.384 209.773 C 163.558 210.062,163.527 210.069,163.212 209.815 C 163.002 209.644,162.765 209.569,162.686 209.647 C 162.299 210.034,158.864 209.865,158.437 209.438 C 157.898 208.898,157.916 209.003,158.220 208.204 C 158.384 207.772,158.388 207.490,158.231 207.410 C 158.097 207.343,158.131 207.321,158.306 207.363 C 158.482 207.404,158.594 207.572,158.556 207.737 "
       stroke="none"
       fill="#e1f2f8"
       fill-rule="evenodd" />
    <path
       id="path4"
       d="M113.800 197.936 C 114.996 197.982,117.021 197.982,118.300 197.936 C 119.579 197.891,118.600 197.854,116.125 197.853 C 113.650 197.853,112.604 197.890,113.800 197.936 M171.813 197.922 C 172.053 197.985,172.447 197.985,172.688 197.922 C 172.928 197.859,172.731 197.808,172.250 197.808 C 171.769 197.808,171.572 197.859,171.813 197.922 "
       stroke="none"
       fill="#c1dcee"
       fill-rule="evenodd" />
  </g>
</svg>
